<svg xmlns="http://www.w3.org/2000/svg" viewBox="0 0 422 252.09"><defs><style>.cls-1{fill:#231f20;}.cls-2{fill:#fff;}.cls-3{fill:#30c0d3;}.cls-4{fill:#ff5783;}</style></defs><title>Asset 1</title><g id="Layer_2" data-name="Layer 2"><g id="Layer_1-2" data-name="Layer 1"><path d="M397.68,29c14.59,9.65,30.77-6.53,21.12-21.12A9.9,9.9,0,0,0,416,5c-14.6-9.63-30.75,6.53-21.12,21.12A9.77,9.77,0,0,0,397.68,29Z"/><path class="cls-1" d="M415.6,29.66C400.85,38.3,385.54,23,394.18,8.24a10.88,10.88,0,0,1,3.9-3.9C412.82-4.3,428.13,11,419.5,25.76A11,11,0,0,1,415.6,29.66Zm-.3-24.82c-14.21-8.37-29,6.42-20.62,20.63a10.36,10.36,0,0,0,3.69,3.69c14.22,8.37,29-6.42,20.63-20.63A10.46,10.46,0,0,0,415.3,4.84Z"/><path d="M406.28,57.7a18.53,18.53,0,0,0-12.64,5.06c2.81,8.42,3.37,20.49,3.37,30.31l-.28,60.21c0,25.27-2.24,44.36-18.81,44.36-5.89,0-13.19-2.25-13.19-12.63a19.9,19.9,0,0,1,2.24-9.55h0a7.18,7.18,0,0,0-7-3.93c-9,0-12.63,7-12.63,13.48,0,.1,0,.2,0,.3C339.91,189.74,330.48,192,320,192c-24.7,0-44.35-13.19-46.88-53.33a212.23,212.23,0,0,0,30.32,2c39.58,0,63.72-14.6,63.72-42.67,0-26.38-21.33-40.42-51.37-40.42-43.51,0-66.81,29.19-66.81,75.79,0,48.29,25.27,74.11,65.69,74.11,14.46,0,27.23-3.38,36.63-9.88,4.62,6.12,13.32,9.88,26.36,9.88,33.13,0,41.55-25.82,41.55-50.25l-.28-86.87C418.91,62.48,413.57,57.7,406.28,57.7Zm-91.35,10c13.76,0,28.35,5.89,28.35,27.51,0,27.79-21.89,35.37-48.56,35.37-7.3-.28-14.88-.85-21.9-1.41C273.39,88.72,290,67.67,314.93,67.67Z"/><path class="cls-2" d="M166.29,13.88q-1.24-.6-2.52-1.14a50.93,50.93,0,0,0-7.83-2.59,53.47,53.47,0,0,0-5.43-1,55,55,0,0,0-8.43-.47,61,61,0,0,0-14.59,2.12,75.59,75.59,0,0,0-18,7.54A84.64,84.64,0,0,0,94,29.6a68.94,68.94,0,0,0-6.3,6.65,62.62,62.62,0,0,1,6.33.9c21.28,4.1,40,18.53,52.63,40.62a100.65,100.65,0,0,1,5.48,11.11c.61,1.44,1.14,2.76,1.62,4a69.94,69.94,0,0,1,32.73,12.84l.54-.62c.16-.18.3-.36.45-.55l.36-.43.63-.78c.61-.77,1.24-1.62,1.91-2.58l.18-.26.54-.77.39-.61.15-.24,0,0,.08-.13.47-.73.08-.14c.14-.21.27-.43.39-.65l.21-.34.51-.89c.13-.22.25-.45.37-.67l.22-.41c.15-.27.3-.55.44-.83.32-.63.62-1.25.92-1.88q1.14-2.46,2-5l.16-.46c.27-.8.52-1.61.76-2.42h0V82.84h.42a1,1,0,0,1,0-.17l.15-.59c.24-1,.46-2.08.65-3.13.06-.34.12-.68.17-1l0-.15c.19-1.26.34-2.52.44-3.8l0-.3c0-.32.05-.63.06-1l0-.17c0-.37,0-.69,0-1,0-.5,0-1,0-1.48V68.44c0-.35,0-.7,0-1v-.18c-.08-1.79-.23-3.56-.46-5.25-.05-.4-.12-.79-.18-1.17l-.17-1.09c-.08-.43-.16-.87-.25-1.3l-.18-.92-.24-1,0-.12c-.32-1.38-.7-2.77-1.12-4.14l-.12-.36-.24-.79v0h0l0-.06c-.29-.86-.6-1.73-.93-2.59l-.37-1-.57-1.39-.13-.29c-.11-.27-.22-.54-.34-.8l-.12-.26c-.37-.83-.76-1.65-1.17-2.47l-.56-1.13.86-.91c.89-.94,1.66-1.82,2.34-2.67.34-.42.66-.86,1-1.29.74-1,1.31-1.82,1.81-2.58a42.88,42.88,0,0,0,2.71-4.83h-.1l-.71,0a33.3,33.3,0,0,0-7.28.59l-.11,0-.4.09c-.8.17-1.58.37-2.33.59l-.27.08c-.86.25-1.63.51-2.33.78l-.86.33-1-.64-.16-.18c-.73-.94-1.46-1.82-2.29-2.78l-.19-.22,0,0-.27-.28c-.84-.95-1.7-1.87-2.57-2.73l-.1-.11c-.42-.42-.77-.76-1.13-1.09-.55-.53-1.09-1-1.65-1.51A54.33,54.33,0,0,0,166.29,13.88Z"/><path class="cls-2" d="M85.07,116.44a69.05,69.05,0,0,1-8.7-11.73C65,84.8,63.38,63.85,71.83,45.34a70.57,70.57,0,0,0-24.18,8.73C30,64.21,18.44,78.38,14.29,95.07c-.25,1-.48,2.05-.67,3.05a61.1,61.1,0,0,0-.87,15.93c.07.91.17,1.82.28,2.73.18,1.51.41,3,.7,4.59h0l0,.24c.05.28.11.56.17.84l.06.28a75,75,0,0,0,2.4,8.87l.21.58c.3.89.62,1.78,1,2.68.11.28.22.57.34.85l.42,1.05c.19.47.38.93.58,1.4.48,1.11,1,2.22,1.51,3.33l.54,1.14-.88.93c-1,1-1.84,1.91-2.63,2.85a45,45,0,0,0-2.88,3.8A40.94,40.94,0,0,0,11.75,155h.08l.77,0c.6,0,1.2.06,1.81.05h.79c.81,0,1.58-.06,2.31-.14l.66-.08.37-.05,1.31-.19.17,0,.46-.09c.8-.16,1.57-.34,2.31-.53l.14,0c1-.27,1.72-.5,2.42-.75l1.32-.47,1.06,1.6.3.47c.6.87,1.22,1.73,1.84,2.57l.84,1.12c.59.79,1.19,1.57,1.79,2.31.78.95,1.56,1.88,2.36,2.78a71.22,71.22,0,0,0,18.29,15c.94.54,1.9,1,2.83,1.51.63.31,1.28.62,1.94.92C55.08,157.14,64.85,133.87,85.07,116.44Z"/><path class="cls-2" d="M201.78,135.93a80.7,80.7,0,0,0-6-9,71.72,71.72,0,0,0-8.71-9.49l-.95.86a84.43,84.43,0,0,1-13.72,9.75,93.82,93.82,0,0,1-8.52,4.36c-2,.89-4,1.72-6,2.45-3.83,20.36-16.57,37.65-35.95,48.76a92.89,92.89,0,0,1-11.41,5.57,73,73,0,0,1-37.63,5.08c-1-.15-2.1-.33-3.19-.53A81.2,81.2,0,0,0,76.18,208c10.16,17.71,24.64,29.35,41.87,33.65,17.58,4.39,37,.87,56.28-10.16,1.25-.71,2.55-1.51,4-2.43l.6-.39.43-.27.21-.17.64-.42,1.28-.86,1.06-.75,1.05.78c1.09.82,2.1,1.52,3.11,2.15.3.19.61.37.92.55l.29.17c1.12.65,2.06,1.15,2.95,1.6a43,43,0,0,0,5.12,2.13v-.21l0-.2a33.19,33.19,0,0,0-.95-5.78l0-.12c-.2-.76-.43-1.53-.72-2.35l-.11-.32c-.28-.77-.58-1.53-.89-2.24l-.05-.12c-.42-.93-.77-1.64-1.13-2.29l-.64-1.18,1-.95c.25-.25.49-.51.73-.77l.88-.92.85-.89C214.92,193,217.52,163.39,201.78,135.93Z"/><path class="cls-2" d="M83.87,100.41A61.52,61.52,0,0,0,91.79,111l.56-.48a56,56,0,0,1,8.71-6.53,86.2,86.2,0,0,1,43.12-11.67l0-.05a94.27,94.27,0,0,0-5-10.17c-11.39-19.87-28-32.81-46.77-36.44a58.49,58.49,0,0,0-10.45-1.05C72.26,61.56,72.94,81.34,83.87,100.41Z"/><path class="cls-2" d="M160.36,124.52c2.61-1.17,5.22-2.5,7.78-4a75.45,75.45,0,0,0,12.13-8.6A61.49,61.49,0,0,0,156.18,102a79.65,79.65,0,0,1,2.63,23.18C159.34,125,159.86,124.75,160.36,124.52Z"/><path class="cls-2" d="M74.1,185.71c10.83,1.51,22,0,33.19-4.53a87.33,87.33,0,0,0,10.35-5.06c15.62-9,26.44-22.51,30.72-38.4a66.52,66.52,0,0,1-14.69,1.69c-15.73,0-30.35-5.84-42.35-16.92-19.73,16.7-28.48,39.09-24.14,61.81A58.93,58.93,0,0,0,74.1,185.71Z"/><path class="cls-2" d="M105.38,111.45a47.9,47.9,0,0,0-7.3,5.52c14.36,12.67,33.08,16.82,51.85,11.44a73.32,73.32,0,0,0-3-27.43A77.37,77.37,0,0,0,105.38,111.45Z"/><path class="cls-3" d="M209.28,131.63a91.29,91.29,0,0,0-6.6-9.95,80.3,80.3,0,0,0-9.46-10.4l.11-.12-.05,0c16.55-19.19,20.3-44.6,10.06-68.56q1.56-2,3-4.19a49.56,49.56,0,0,0,4.57-8.81c.38-1,.74-2,1.06-3L213.38,22l-4.65-1a41.21,41.21,0,0,0-18.78.33,66.06,66.06,0,0,0-6.23-6.19,62.41,62.41,0,0,0-13.65-9.06c-1-.47-1.94-.92-2.94-1.34a61.14,61.14,0,0,0-9.14-3A63.63,63.63,0,0,0,151.66.56,64.55,64.55,0,0,0,141.91,0a70.52,70.52,0,0,0-16.66,2.42,84.56,84.56,0,0,0-20,8.38A94.62,94.62,0,0,0,88.1,23.25,74,74,0,0,0,77,36.07a77.09,77.09,0,0,0-33.69,10.5C23.58,57.91,10.63,74,5.9,93c-.3,1.2-.55,2.38-.77,3.51a69.67,69.67,0,0,0-1,18.19A84,84,0,0,0,10.72,141c-1.14,1.37-2.24,2.82-3.28,4.34A49.09,49.09,0,0,0,2.67,154c-.41,1-.79,2-1.13,3L0,161.51l4.63,1.1a41.66,41.66,0,0,0,18.52.19c1,1.3,1.81,2.41,2.64,3.43s1.7,2.05,2.59,3.06a80.37,80.37,0,0,0,20.52,16.8c1.07.6,2.15,1.17,3.23,1.71a68.75,68.75,0,0,0,7.72,3.28l0,0a87.86,87.86,0,0,0,8.8,21.12C80,232.06,96.39,245.11,116,250a71.12,71.12,0,0,0,17.23,2.1c14.94,0,30.23-4.43,45.44-13.15,1.25-.71,2.5-1.47,3.82-2.31,1.46.89,3,1.74,4.57,2.52a50.48,50.48,0,0,0,9.28,3.51c1,.26,2,.5,3.1.7l4.68.89.43-4.74a41.75,41.75,0,0,0-2.72-19.14C224,195.35,226.83,162.24,209.28,131.63ZM57.92,181c-.66-.3-1.31-.61-1.94-.92-.93-.47-1.89-1-2.83-1.51a71.22,71.22,0,0,1-18.29-15c-.8-.9-1.58-1.83-2.36-2.78-.6-.74-1.2-1.52-1.79-2.31l-.84-1.12c-.62-.84-1.24-1.7-1.84-2.57l-.3-.47-1.06-1.6-1.32.47c-.7.25-1.44.48-2.42.75l-.14,0c-.74.19-1.51.37-2.31.53l-.46.09-.17,0-1.31.19-.37.05-.66.08c-.73.08-1.5.12-2.31.14h-.79c-.61,0-1.21,0-1.81-.05l-.77,0h-.08a40.94,40.94,0,0,1,2.83-4.77,45,45,0,0,1,2.88-3.8c.79-.94,1.65-1.88,2.63-2.85l.88-.93-.54-1.14c-.53-1.11-1-2.22-1.51-3.33-.2-.47-.39-.93-.58-1.4l-.42-1.05c-.12-.28-.23-.57-.34-.85-.34-.9-.66-1.79-1-2.68l-.21-.58a75,75,0,0,1-2.4-8.87l-.06-.28c-.06-.28-.12-.56-.17-.84l0-.24h0c-.29-1.54-.52-3.08-.7-4.59-.11-.91-.21-1.82-.28-2.73a61.1,61.1,0,0,1,.87-15.93c.19-1,.42-2,.67-3.05,4.15-16.69,15.68-30.86,33.36-41a70.57,70.57,0,0,1,24.18-8.73C63.38,63.85,65,84.8,76.37,104.71a69.05,69.05,0,0,0,8.7,11.73C64.85,133.87,55.08,157.14,57.92,181ZM193.19,29.49l.4-.09.11,0a33.3,33.3,0,0,1,7.28-.59l.71,0h.1a42.88,42.88,0,0,1-2.71,4.83c-.5.76-1.07,1.58-1.81,2.58-.32.43-.64.87-1,1.29-.68.85-1.45,1.73-2.34,2.67l-.86.91.56,1.13c.41.82.8,1.64,1.17,2.47l.12.26c.12.26.23.53.34.8l.13.29.57,1.39.37,1c.33.86.64,1.73.93,2.59l0,.06h0v0l.24.79.12.36c.42,1.37.8,2.76,1.12,4.14l0,.12.24,1,.18.92c.09.43.17.87.25,1.3l.17,1.09c.06.38.13.77.18,1.17.23,1.69.38,3.46.46,5.25v.18c0,.35,0,.7,0,1v1.62c0,.49,0,1,0,1.48,0,.32,0,.64,0,1l0,.17c0,.32,0,.63-.06,1l0,.3c-.1,1.28-.25,2.54-.44,3.8l0,.15c-.05.35-.11.69-.17,1-.19,1-.41,2.1-.65,3.13l-.15.59a1,1,0,0,0,0,.17h-.42v1.53h0c-.24.81-.49,1.62-.76,2.42l-.16.46q-.87,2.51-2,5c-.3.63-.6,1.25-.92,1.88-.14.28-.29.56-.44.83l-.22.41c-.12.22-.24.45-.37.67l-.51.89-.21.34c-.12.22-.25.44-.39.65l-.08.14-.47.73-.08.13,0,0-.15.24-.39.61-.54.77-.18.26c-.67,1-1.3,1.81-1.91,2.58l-.63.78-.36.43c-.15.19-.29.37-.45.55l-.54.62a69.94,69.94,0,0,0-32.73-12.84c-.48-1.27-1-2.59-1.62-4a100.65,100.65,0,0,0-5.48-11.11C134,55.68,115.29,41.25,94,37.15a62.62,62.62,0,0,0-6.33-.9A68.94,68.94,0,0,1,94,29.6a84.64,84.64,0,0,1,15.54-11.28,75.59,75.59,0,0,1,18-7.54,61,61,0,0,1,14.59-2.12,55,55,0,0,1,8.43.47,53.47,53.47,0,0,1,5.43,1,50.93,50.93,0,0,1,7.83,2.59q1.28.54,2.52,1.14a54.33,54.33,0,0,1,11.76,7.82c.56.48,1.1,1,1.65,1.51.36.33.71.67,1.13,1.09l.1.11c.87.86,1.73,1.78,2.57,2.73l.27.28,0,0,.19.22c.83,1,1.56,1.84,2.29,2.78l.16.18,1,.64.86-.33c.7-.27,1.47-.53,2.33-.78l.27-.08C191.61,29.86,192.39,29.66,193.19,29.49Zm-37,72.53A61.49,61.49,0,0,1,180.27,112a75.45,75.45,0,0,1-12.13,8.6c-2.56,1.47-5.17,2.8-7.78,4-.5.23-1,.46-1.55.68A79.65,79.65,0,0,0,156.18,102Zm-6.25,26.39c-18.77,5.38-37.49,1.23-51.85-11.44a47.9,47.9,0,0,1,7.3-5.52A77.37,77.37,0,0,1,146.94,101,73.32,73.32,0,0,1,149.93,128.41ZM92.37,45.63c18.77,3.63,35.38,16.57,46.77,36.44a94.27,94.27,0,0,1,5,10.17l0,.05A86.2,86.2,0,0,0,101.06,104a56,56,0,0,0-8.71,6.53l-.56.48a61.52,61.52,0,0,1-7.92-10.56c-10.93-19.07-11.61-38.85-2-55.83A58.49,58.49,0,0,1,92.37,45.63Zm-1.05,76.86c12,11.08,26.62,16.92,42.35,16.92a66.52,66.52,0,0,0,14.69-1.69c-4.28,15.89-15.1,29.44-30.72,38.4a87.33,87.33,0,0,1-10.35,5.06c-11.19,4.51-22.36,6-33.19,4.53a58.93,58.93,0,0,1-6.92-1.41C62.84,161.58,71.59,139.19,91.32,122.49ZM72.9,194.27a73,73,0,0,0,37.63-5.08,92.89,92.89,0,0,0,11.41-5.57c19.38-11.11,32.12-28.4,35.95-48.76,2-.73,4-1.56,6-2.45a93.82,93.82,0,0,0,8.52-4.36,84.43,84.43,0,0,0,13.72-9.75l.95-.86a71.72,71.72,0,0,1,8.71,9.49,80.7,80.7,0,0,1,6,9c15.74,27.46,13.14,57.08-6.95,79.26l-.85.89-.88.92c-.24.26-.48.52-.73.77l-1,.95.64,1.18c.36.65.71,1.36,1.13,2.29l.05.12c.31.71.61,1.47.89,2.24l.11.32c.29.82.52,1.59.72,2.35l0,.12a33.19,33.19,0,0,1,.95,5.78l0,.2v.21a43,43,0,0,1-5.12-2.13c-.89-.45-1.83-1-2.95-1.6l-.29-.17c-.31-.18-.62-.36-.92-.55-1-.63-2-1.33-3.11-2.15l-1.05-.78-1.06.75-1.28.86-.64.42-.21.17-.43.27-.6.39c-1.43.92-2.73,1.72-4,2.43-19.24,11-38.7,14.55-56.28,10.16-17.23-4.3-31.71-15.94-41.87-33.65a81.2,81.2,0,0,1-6.47-14.21C70.8,193.94,71.86,194.12,72.9,194.27Z"/><path class="cls-4" d="M146.94,101a77.37,77.37,0,0,0-41.56,10.47,47.9,47.9,0,0,0-7.3,5.52c14.36,12.67,33.08,16.82,51.85,11.44A73.32,73.32,0,0,0,146.94,101Z"/></g></g></svg>