<svg id="Layer_1" data-name="Layer 1" xmlns="http://www.w3.org/2000/svg" viewBox="0 0 693.11 433.2"><defs><style>.cls-1{fill:#231f20;}.cls-2{fill:#fff;}.cls-3{fill:#ff5783;}.cls-4{fill:#30c0d3;}.cls-5{fill:#c1272d;}</style></defs><title>Artboard 1 copy 9empurrandorocket</title><path d="M533.23,119.51c14.6,9.66,30.78-6.53,21.12-21.12a9.9,9.9,0,0,0-2.81-2.81C537,86,520.79,102.12,530.42,116.7A9.9,9.9,0,0,0,533.23,119.51Z"/><path class="cls-1" d="M551.15,120.21c-14.74,8.64-30-6.67-21.41-21.42a11,11,0,0,1,3.89-3.89c14.75-8.64,30.06,6.67,21.42,21.41A10.88,10.88,0,0,1,551.15,120.21Zm-.29-24.82c-14.22-8.36-29,6.42-20.63,20.63a10.57,10.57,0,0,0,3.7,3.7c14.21,8.36,29-6.42,20.62-20.64A10.44,10.44,0,0,0,550.86,95.39Z"/><path d="M541.83,148.26a18.51,18.51,0,0,0-12.63,5.05c2.81,8.42,3.37,20.49,3.37,30.32l-.28,60.21c0,25.26-2.25,44.35-18.81,44.35-5.9,0-13.19-2.25-13.19-12.63a19.9,19.9,0,0,1,2.24-9.55h0a7.21,7.21,0,0,0-7-3.93c-9,0-12.63,7-12.63,13.48,0,.1,0,.2,0,.3-7.44,4.43-16.86,6.72-27.36,6.72-24.7,0-44.35-13.2-46.88-53.34a212.23,212.23,0,0,0,30.32,2c39.58,0,63.72-14.59,63.72-42.66,0-26.39-21.33-40.43-51.37-40.43-43.51,0-66.81,29.2-66.81,75.8,0,48.28,25.26,74.11,65.69,74.11,14.46,0,27.23-3.39,36.63-9.89,4.62,6.12,13.32,9.89,26.36,9.89,33.12,0,41.54-25.83,41.54-50.25l-.28-86.88C554.46,153,549.13,148.26,541.83,148.26Zm-91.34,10c13.75,0,28.35,5.89,28.35,27.51,0,27.79-21.9,35.37-48.56,35.37-7.3-.28-14.88-.84-21.9-1.4C408.94,179.27,425.5,158.22,450.49,158.22Z"/><path class="cls-2" d="M301.69,104.37c-.83-.4-1.67-.79-2.52-1.15a51.36,51.36,0,0,0-13.32-3.62,55.19,55.19,0,0,0-8.45-.47,61,61,0,0,0-14.65,2.13,75.73,75.73,0,0,0-18,7.56,85.79,85.79,0,0,0-15.6,11.33,67.08,67.08,0,0,0-6.31,6.68q3.27.3,6.35.89c21.35,4.13,40.11,18.61,52.83,40.78a101.37,101.37,0,0,1,5.5,11.15c.61,1.44,1.14,2.77,1.62,4A70.11,70.11,0,0,1,322,196.58l.54-.62.45-.55.36-.44c.21-.25.43-.51.63-.77.61-.78,1.24-1.63,1.92-2.6l.18-.25.54-.78L327,190l.16-.24v0l.09-.13c.17-.28.33-.51.47-.74l.08-.13.39-.66.2-.34.52-.89.37-.68.22-.4.45-.84c.31-.63.62-1.26.92-1.89.76-1.65,1.43-3.3,2-5l.15-.45c.28-.81.53-1.62.77-2.44h0v-1.55h.42a1.24,1.24,0,0,1,0-.16l.15-.6c.24-1,.46-2.08.65-3.13.06-.35.12-.69.17-1l0-.15q.28-1.91.45-3.81l0-.3c0-.33,0-.64.07-1v-.17c0-.38,0-.69,0-1,0-.5,0-1,0-1.49v-1.63c0-.35,0-.7,0-1v-.18c-.07-1.8-.23-3.58-.46-5.28-.05-.39-.11-.78-.17-1.17l-.18-1.09c-.07-.44-.16-.87-.25-1.3l-.18-.93-.24-1,0-.12c-.32-1.37-.7-2.77-1.13-4.14l-.11-.37c-.08-.27-.16-.53-.25-.79v0h0v-.06c-.29-.87-.61-1.74-.94-2.6l-.37-1-.58-1.39-.12-.29c-.11-.27-.23-.54-.35-.81l-.12-.26c-.37-.83-.76-1.66-1.17-2.48l-.56-1.13.86-.91c.9-.95,1.67-1.83,2.35-2.68.34-.42.66-.86,1-1.3.74-1,1.31-1.82,1.81-2.59a40.9,40.9,0,0,0,2.72-4.85h-.1l-.71,0a33,33,0,0,0-7.31.6l-.1,0-.42.09c-.79.17-1.58.37-2.33.59l-.27.07c-.86.26-1.64.52-2.34.79l-.87.34-1-.65-.16-.18c-.73-.94-1.46-1.82-2.29-2.79l-.2-.22,0,0-.27-.29c-.84-1-1.71-1.87-2.57-2.74l-.11-.1c-.42-.42-.77-.76-1.13-1.1-.55-.53-1.1-1-1.66-1.52A54.12,54.12,0,0,0,301.69,104.37Z"/><path class="cls-2" d="M337.32,226.88a81.24,81.24,0,0,0-6-9,72.35,72.35,0,0,0-8.74-9.54l-1,.87A84.8,84.8,0,0,1,307.87,219c-2.81,1.61-5.69,3.08-8.56,4.37-2,.9-4,1.73-6.05,2.46-3.84,20.44-16.62,37.79-36.08,48.95a93.7,93.7,0,0,1-11.46,5.59A73.13,73.13,0,0,1,208,285.43c-1-.14-2.11-.32-3.2-.53a81.11,81.11,0,0,0,6.49,14.27c10.2,17.78,24.73,29.46,42,33.78,17.64,4.4,37.17.87,56.49-10.2,1.25-.72,2.56-1.52,4-2.45l.6-.38.42-.27.22-.17.64-.43,1.28-.86,1.07-.75,1.05.78c1.09.82,2.11,1.53,3.12,2.16.3.19.62.37.93.55l.29.17c1.12.65,2.06,1.16,3,1.6a41.75,41.75,0,0,0,5.14,2.14v-.21l0-.2a33.57,33.57,0,0,0-.95-5.8l0-.12c-.19-.76-.43-1.53-.72-2.36l-.11-.32c-.28-.78-.58-1.53-.89-2.25l-.05-.12c-.42-.93-.77-1.64-1.13-2.3l-.65-1.18.95-1c.26-.25.5-.51.74-.77l.88-.92c.29-.3.58-.6.85-.9C350.51,284.18,353.12,254.44,337.32,226.88Z"/><path class="cls-2" d="M219,191.22a62.09,62.09,0,0,0,7.94,10.61l.57-.49a55.75,55.75,0,0,1,8.74-6.55,86.6,86.6,0,0,1,43.28-11.72l0,0a93,93,0,0,0-5-10.2c-11.44-19.95-28.11-32.94-46.95-36.58A58,58,0,0,0,217,135.19C207.31,152.23,208,172.09,219,191.22Z"/><path class="cls-2" d="M295.75,215.43c2.61-1.18,5.24-2.52,7.8-4a75.47,75.47,0,0,0,12.18-8.64,61.78,61.78,0,0,0-24.18-10,80.2,80.2,0,0,1,2.64,23.26C294.72,215.88,295.24,215.66,295.75,215.43Z"/><path class="cls-2" d="M209.16,276.84c10.87,1.52,22.08,0,33.31-4.55a84.21,84.21,0,0,0,10.39-5.07c15.68-9,26.54-22.6,30.84-38.54A67,67,0,0,1,269,230.37c-15.8,0-30.46-5.86-42.52-17-19.8,16.76-28.58,39.24-24.23,62A59.42,59.42,0,0,0,209.16,276.84Z"/><path class="cls-2" d="M240.56,202.31a47.73,47.73,0,0,0-7.33,5.53c14.41,12.73,33.21,16.89,52,11.48a73.5,73.5,0,0,0-3-27.53A77.65,77.65,0,0,0,240.56,202.31Z"/><path class="cls-3" d="M282.27,191.79a77.65,77.65,0,0,0-41.71,10.52,47.73,47.73,0,0,0-7.33,5.53c14.41,12.73,33.21,16.89,52,11.48A73.5,73.5,0,0,0,282.27,191.79Z"/><path class="cls-4" d="M192.87,274.33a96.89,96.89,0,0,0,5.1,17.5,95.8,95.8,0,0,0,5.86,11.54c11.4,19.87,27.81,33,47.45,37.88a71.78,71.78,0,0,0,17.31,2.1c15,0,30.33-4.44,45.61-13.2,1.24-.71,2.51-1.47,3.83-2.32,1.46.9,3,1.75,4.59,2.53a49.13,49.13,0,0,0,9.31,3.52c1,.27,2.06.51,3.11.71l4.7.9.43-4.76a42,42,0,0,0-2.73-19.22c22.31-25.11,25.14-58.34,7.52-89.07a93.48,93.48,0,0,0-6.62-10,82.35,82.35,0,0,0-9.5-10.44l.11-.12-.06,0c16.62-19.25,20.39-44.77,10.1-68.81,1.05-1.34,2.06-2.75,3-4.21a50.21,50.21,0,0,0,4.58-8.84c.39-1,.74-2,1.06-3l1.44-4.56-4.67-1a41.24,41.24,0,0,0-18.85.32,67.8,67.8,0,0,0-6.26-6.21,62.61,62.61,0,0,0-13.7-9.09c-1-.47-2-.92-3-1.34a60.2,60.2,0,0,0-9.18-3,63.51,63.51,0,0,0-6.35-1.2,65,65,0,0,0-9.79-.54,70.57,70.57,0,0,0-16.72,2.42,84.78,84.78,0,0,0-20.11,8.42,94.56,94.56,0,0,0-17.18,12.49c-23.51,21.79-27.56,54.22-11.77,81.76a70.06,70.06,0,0,0,8.73,11.78C200,224.68,190.18,248.05,193,272ZM328.8,119.92l.41-.09.11,0a32.93,32.93,0,0,1,7.3-.6l.72,0h.1a40.9,40.9,0,0,1-2.72,4.85c-.5.77-1.07,1.59-1.81,2.59-.33.44-.65.88-1,1.3-.68.85-1.45,1.73-2.35,2.68l-.86.91.56,1.13c.41.82.8,1.65,1.17,2.48l.12.26c.12.27.24.54.35.81l.12.29c.2.47.39.93.57,1.39l.38.95c.33.87.65,1.74.94,2.61v.06h0v0c.09.26.17.52.25.79l.11.36c.43,1.38.81,2.78,1.13,4.15l0,.12.24,1,.18.93c.09.43.17.86.25,1.3l.18,1.09c.06.39.12.78.17,1.17.23,1.7.39,3.48.46,5.28V158c0,.35,0,.7,0,1s0,.5,0,.75v.88c0,.49,0,1,0,1.49,0,.31,0,.63,0,1v.17c0,.32,0,.63-.07.95l0,.31c-.1,1.27-.25,2.54-.44,3.81l0,.15c-.05.34-.11.69-.17,1-.19,1.05-.41,2.1-.65,3.13l-.15.6a.94.94,0,0,0,0,.16h-.42V175h0c-.24.82-.49,1.63-.77,2.44l-.15.45c-.59,1.68-1.26,3.33-2,5-.29.63-.6,1.26-.91,1.88l-.45.85-.22.4-.37.68-.52.89-.2.34-.39.66-.08.13c-.15.23-.3.46-.47.74l-.09.12v0l-.16.24-.39.61-.54.78-.18.25c-.68,1-1.31,1.82-1.92,2.6l-.63.77-.36.44-.45.55-.54.62a70.15,70.15,0,0,0-32.86-12.88c-.48-1.28-1-2.61-1.62-4.05a99.66,99.66,0,0,0-5.51-11.15c-12.71-22.17-31.47-36.66-52.82-40.78q-3.07-.59-6.35-.9a68.13,68.13,0,0,1,6.31-6.68,85.28,85.28,0,0,1,15.6-11.32,75.73,75.73,0,0,1,18-7.56A61,61,0,0,1,277.51,99a55.19,55.19,0,0,1,8.45.47,53.52,53.52,0,0,1,5.46,1,52.82,52.82,0,0,1,7.86,2.6c.85.36,1.69.74,2.52,1.15a54.12,54.12,0,0,1,11.81,7.84c.56.49,1.11,1,1.66,1.52.36.34.71.68,1.13,1.1l.11.1c.86.87,1.73,1.79,2.57,2.74l.27.29,0,0,.2.22c.83,1,1.56,1.85,2.29,2.79l.16.18,1,.64.87-.33c.7-.27,1.48-.53,2.34-.79l.27-.07C327.22,120.29,328,120.09,328.8,119.92Zm-37.14,72.8a61.78,61.78,0,0,1,24.18,10,75.47,75.47,0,0,1-12.18,8.64c-2.57,1.47-5.19,2.81-7.8,4-.51.23-1,.45-1.56.67A80.2,80.2,0,0,0,291.66,192.72Zm-6.28,26.48c-18.83,5.41-37.63,1.25-52-11.48a47.09,47.09,0,0,1,7.33-5.53,77.65,77.65,0,0,1,41.71-10.52A73.49,73.49,0,0,1,285.38,219.2Zm-57.77-83.08c18.84,3.64,35.51,16.63,46.94,36.58a91.26,91.26,0,0,1,5,10.2l0,0a86.49,86.49,0,0,0-43.28,11.72,55.75,55.75,0,0,0-8.74,6.55l-.57.49a62.09,62.09,0,0,1-7.94-10.61c-11-19.13-11.66-39-2-56A59,59,0,0,1,227.61,136.12Zm-1.06,77.15c12.06,11.12,26.72,17,42.52,17a67,67,0,0,0,14.74-1.69c-4.3,15.94-15.16,29.55-30.84,38.54a85.66,85.66,0,0,1-10.39,5.07c-11.23,4.54-22.44,6.07-33.31,4.55a59.42,59.42,0,0,1-7-1.41C198,252.5,206.75,230,226.55,213.27Zm-18.48,72a73.13,73.13,0,0,0,37.76-5.09,94.41,94.41,0,0,0,11.46-5.59c19.46-11.16,32.24-28.51,36.08-48.95,2-.74,4.05-1.56,6.05-2.46,2.87-1.29,5.75-2.76,8.55-4.37a84.46,84.46,0,0,0,13.77-9.79l1-.87a71.78,71.78,0,0,1,8.74,9.54,81.24,81.24,0,0,1,6,9c15.8,27.56,13.19,57.3-7,79.55-.27.3-.56.6-.85.9l-.88.92c-.24.26-.48.52-.74.77l-1,1,.65,1.18c.36.66.71,1.37,1.12,2.3l.06.12c.31.72.61,1.47.89,2.25l.11.32c.29.83.52,1.6.72,2.35l0,.13a33.42,33.42,0,0,1,.95,5.8l0,.2v.21a41.75,41.75,0,0,1-5.14-2.14c-.9-.44-1.84-.95-3-1.61l-.29-.16c-.31-.18-.63-.36-.93-.55-1-.63-2-1.34-3.12-2.16l-1.05-.79-1.07.76-1.28.86-.64.43-.22.17-.42.27-.61.38c-1.43.93-2.74,1.73-4,2.44-19.32,11.08-38.85,14.61-56.49,10.21-17.3-4.32-31.84-16-42-33.78a81.45,81.45,0,0,1-6.49-14.27C206,285,207,285.17,208.07,285.31Z"/><path class="cls-5" d="M190.9,271.2c-.94-.46-1.89-1-2.84-1.5-1.7-1-3.37-2-5-3.13l-.18.14a43.4,43.4,0,0,1-8.65,4.12l0,0c-7.4,2.67-16.62,3.78-23.85-.75,3.53-2,8.41-5,11.77-10.78l.18.19a26.87,26.87,0,0,0,3.32-8.55l-.16-1.45c-.27-.36-.54-.73-.82-1.09-.62-.86-1.24-1.71-1.84-2.59l-.31-.47a119.75,119.75,0,0,1-7.25-12.9,81.43,81.43,0,0,1-6.52-18.79l-.06-.28c-.06-.28-.12-.56-.17-.84l0-.25c-.29-1.55-.52-3.1-.7-4.61-.11-.92-.21-1.83-.28-2.74a61.13,61.13,0,0,1,.88-16c.19-1,.41-2,.67-3.06,4.16-16.75,15.74-31,33.48-41.16a80.27,80.27,0,0,1,7.75-3.9,68.37,68.37,0,0,1,16.59-5l5.16-9.19a77.05,77.05,0,0,0-32.45,9.78,45.7,45.7,0,0,0-10.05-3.92,38.08,38.08,0,0,0-32.87,7.81s15.8,7.6,16.74,17.72a67.42,67.42,0,0,0-12.78,25.75c-.29,1.2-.55,2.39-.77,3.52-4.06,21.46,2.93,45.33,16.15,64.12l-.4-.38c-1,11.1-19.18,18.27-19.18,18.27a40.37,40.37,0,0,0,34.15,10.79,48.81,48.81,0,0,0,11.73-3.74c.49.3,1,.58,1.48.87,1.08.6,2.17,1.18,3.25,1.72a70.36,70.36,0,0,0,7.75,3.29l0,.05-2-10.19Q191.86,271.68,190.9,271.2Z"/><path class="cls-2" d="M220.17,207.32a70.61,70.61,0,0,1-8.73-11.78c-11.46-20-13-41-4.55-59.6a71,71,0,0,0-24.28,8.77c-17.74,10.17-29.32,24.4-33.48,41.15-.26,1-.48,2.06-.67,3.07a60.62,60.62,0,0,0-.87,16c.06.92.16,1.83.27,2.74.18,1.52.42,3.07.71,4.62h0l0,.25c.06.28.12.55.17.83l.06.28a77.16,77.16,0,0,0,2.41,8.91l.21.59c.31.89.62,1.78,1,2.68.11.29.22.57.34.86l.43,1.05q.27.71.57,1.41c.48,1.11,1,2.22,1.52,3.33l6.26,11.26,1.06,1.6c.11.16.21.32.31.48.6.87,1.22,1.73,1.85,2.58l.34.46.24,2.25c-2.37,11.33-9.95,16.22-14.88,19,10.34,6.48,24.78,1.41,32.09-3.23l.47-.38q2.5,1.73,5.1,3.2c1,.54,1.91,1,2.84,1.51.64.32,1.29.62,1.95.93C190.07,248.17,199.88,224.81,220.17,207.32Z"/><circle class="cls-5" cx="200.19" cy="205.19" r="7.62"/><circle class="cls-5" cx="173.7" cy="204.73" r="7.62"/></svg>