<svg id="Layer_1" data-name="Layer 1" xmlns="http://www.w3.org/2000/svg" viewBox="0 0 118.98 111.21"><defs><style>.cls-1{fill:#c6027b;}</style></defs><title>CPA logoCPA</title><g id="Layer_2" data-name="Layer 2"><g id="Layer_1-2" data-name="Layer 1-2"><path class="cls-1" d="M1.67,46.15v-.07A1.31,1.31,0,0,0,0,45.73v2.64a1.41,1.41,0,0,0,.45.07A20.1,20.1,0,0,1,1.67,46.15Z"/><path class="cls-1" d="M.3,48.88c-.07,0-.14-.1-.22-.14a6.54,6.54,0,0,0-.06.89C.11,49.38.2,49.13.3,48.88Z"/><path class="cls-1" d="M51.61,42.56v3.53h.45c.11-.28.24-.56.37-.83l.07-.14a10,10,0,0,1,1.59-2.27,1.48,1.48,0,0,0-1.28-.8A1.56,1.56,0,0,0,51.61,42.56Z"/><path class="cls-1" d="M96.29,52.2a6,6,0,0,0-1.15.16,6.5,6.5,0,0,0-3.21,1.56,5.52,5.52,0,0,0-.67.78,5.6,5.6,0,0,0-.93,2.64v2c0,3.34,2.2,4.85,5.34,4.85a8.54,8.54,0,0,0,3-.47l.53-.23c1.62-.83,2.55-2.44,2.55-5.18v-6.2H97.51C97.1,52.14,96.7,52.16,96.29,52.2Z"/><path class="cls-1" d="M101.76,45V42.84a16.35,16.35,0,0,0-.68-5.06,7.45,7.45,0,0,0-.61-1.35,5.79,5.79,0,0,0-2-2.14l-.2-.12a7.78,7.78,0,0,0-2.82-.91h-.32a12.79,12.79,0,0,0-1.52-.09H92.17a3.73,3.73,0,0,0-.82.09,10.18,10.18,0,0,0-1.08.19l-.56.15c-.32.09-.61.2-.9.31v.48a3.9,3.9,0,0,1,1.78,1.85,4.58,4.58,0,0,1,.41,1.5,5.34,5.34,0,0,1,0,.8,6.46,6.46,0,0,1-.29,2v.11A5.18,5.18,0,0,1,89.19,43a5.72,5.72,0,0,1-1.19.7,7.27,7.27,0,0,1-3.15.65h-.09a5.76,5.76,0,0,1-3-.84l-.14-.09a5.52,5.52,0,0,1-2-2.43,2,2,0,0,0-.72.57,3.25,3.25,0,0,0-.08-.43,1.57,1.57,0,0,0-1.24-1.31,1.59,1.59,0,0,0-1.69.79l-.21.3a4.69,4.69,0,0,0,0-.53,1.51,1.51,0,0,0-1.12-1.48,1.58,1.58,0,0,0-1.74.67A1.52,1.52,0,0,0,73,41.42a2,2,0,0,0,.38.32,2.14,2.14,0,0,0-1.59.79A15.81,15.81,0,0,1,74,44.77c.29.38.57.78.84,1.19a20.66,20.66,0,0,1,1.53,2.86q.24.57.45,1.17a22.65,22.65,0,0,1,1,3.32,3.77,3.77,0,0,0,.14.63c.13.71.25,1.44.34,2.19,1.3-4.54,5.34-7.37,11.84-8.4.43-.07.87-.13,1.33-.18a41.7,41.7,0,0,1,4.74-.26h5.58Z"/><path class="cls-1" d="M69.6,41a12.44,12.44,0,0,1,2.14,1.46c-.17-.92-.59-1.42-1.32-1.55A1.53,1.53,0,0,0,69.6,41Z"/><path class="cls-1" d="M54.78,73.08a5.89,5.89,0,0,0,.58.24,7.7,7.7,0,0,0,2.56.44,7,7,0,0,0,4.15-1.29l.39-.29a8.46,8.46,0,0,0,2.68-6.7V54.68a10.86,10.86,0,0,0-.08-1.28,9.23,9.23,0,0,0-.21-1.28,7.77,7.77,0,0,0-1.32-3,6,6,0,0,0-1-1.08,6.49,6.49,0,0,0-2.19-1.26l-.29-.1a7.81,7.81,0,0,0-2.15-.3h-.41A8.26,8.26,0,0,0,56,46.6a6.51,6.51,0,0,0-2.76,1.45,6.31,6.31,0,0,0-1.91,3.16,6.72,6.72,0,0,0-.18.87,8.08,8.08,0,0,0-.09,1.2V66.84A6.63,6.63,0,0,0,54.78,73.08Z"/><path class="cls-1" d="M57.35,40.1a1.53,1.53,0,0,0-1.87.69,1.45,1.45,0,0,0-.16.91,11.16,11.16,0,0,1,2.34-1.42A1,1,0,0,0,57.35,40.1Z"/><path class="cls-1" d="M118.62,34.63c.15.28-.05.61.36.87-.11-.75-.15-1.4-.3-2a1.56,1.56,0,0,0-1.92-1.08,1.51,1.51,0,0,0-.61.33,4.68,4.68,0,0,0-.39.38,6.41,6.41,0,0,0-.16-.76,1.53,1.53,0,0,0-2-.94h0a1.45,1.45,0,0,0-1,1.2,1.54,1.54,0,0,0,.6,1.52c.13.1.39.1.35.37a1.33,1.33,0,0,0-1,0,12.31,12.31,0,0,1,1.28,2.9q.19.68.33,1.38a18,18,0,0,1,.34,3.51v23h4.41c0-4.92-.06-8.49-.1-8.62l-.6.23-.31-.61.66-.34.26.39a29,29,0,0,0,0-3.23v-6.6L118,47l-.49-1,1-.5.24.47a12.75,12.75,0,0,0,.11-1.75,1.49,1.49,0,0,0-.43-1.25v-.12l.41-.17V36.47c-.48,0-.69.38-1,.65a2,2,0,0,0-.85-1.61A1.75,1.75,0,0,0,118.62,34.63Z"/><path class="cls-1" d="M110.87,71.61c-3.3,0-5.42-1-6.66-2.51l-.26-.36a7.44,7.44,0,0,1-1.17-4.28v-.08h-.32a2.56,2.56,0,0,1-.11.24l-.15.32c-1.61,3.26-4.38,6.67-11.36,6.67-4.77,0-8.09-1.2-10.19-3.41-.13-.14-.26-.27-.38-.42a9.78,9.78,0,0,1-1.83-3.48,1.94,1.94,0,0,0-.14-.45v.33q-.17,1.38-.45,2.67l-.06.3A23,23,0,0,1,75.64,73l-.22.4A14.27,14.27,0,0,1,62.58,81c-5.71,0-9.16-3.19-10.52-6.69h-.45v21.3h67.26c.08-1,.09-14.61,0-25.49A19.92,19.92,0,0,1,110.87,71.61Z"/><path class="cls-1" d="M37,47.93a7.47,7.47,0,0,1-.48,2.19v.13A6,6,0,0,1,35,52.54a5.5,5.5,0,0,1-1.13.77,7,7,0,0,1-3.15.77h-.2a8.29,8.29,0,0,1-2.57-.38,5.76,5.76,0,0,1-.89-.37,5.15,5.15,0,0,1-2.24-2.07h0a6,6,0,0,1-.59-1.52.49.49,0,0,0-.07-.31,7.31,7.31,0,0,1-.1-1.14,6.26,6.26,0,0,1,.3-1.92,1,1,0,0,1,.12-.32A6.13,6.13,0,0,1,26,43.64a7.13,7.13,0,0,1,1.44-1v-.49h0a13.38,13.38,0,0,0-2.8-.57H21.82a12,12,0,0,0-1.88.26,9.55,9.55,0,0,0-2.48.89,8.9,8.9,0,0,0-1.64,1.14A8.73,8.73,0,0,0,14,46.11l-.19.33a12.75,12.75,0,0,0-1,2.66,2.13,2.13,0,0,1-.1.4,16.85,16.85,0,0,0-.37,3v9.74a17.19,17.19,0,0,0,.37,3.65c.08.35.17.68.27,1a9.74,9.74,0,0,0,1.63,3.21q.3.38.63.72A7.42,7.42,0,0,0,21,73h.14a5.23,5.23,0,0,0,.56,0A19.81,19.81,0,0,0,28,71.54c.22-.11.44-.23.65-.36a14.16,14.16,0,0,0,3.18-3l3.27,1.91.75.44.75.43A20.27,20.27,0,0,1,35,73.55h0a16.92,16.92,0,0,1-5.41,4.65l-.2.11a25.8,25.8,0,0,1-9.56,2.76C9.6,82.22,2.89,76.37.05,68.14v4.27L.93,72l.38.78-.82.41C.36,73,.24,72.8.11,72.61A5.24,5.24,0,0,0,0,73.92a4.68,4.68,0,0,0,.15,1.86v.15a4.64,4.64,0,0,0-.11.65V95.76H17.83v15.45c.21-.13.34-.19.46-.28l11.11-8.05,10-7.29h0V48.22l-.62-.07Z"/><path class="cls-1" d="M67,39.89a11.14,11.14,0,0,1,1.1.4.36.36,0,0,0-.07-.1L67.79,40a4.8,4.8,0,0,1-.5-.09A1.42,1.42,0,0,0,67,39.89Z"/><path class="cls-1" d="M69.55,38.3a1.51,1.51,0,0,0-1.32-1.42,1.53,1.53,0,0,0-1.62,1,1.51,1.51,0,0,0,.76,1.84l.42.25h0l.54-.1A1.52,1.52,0,0,0,69.55,38.3Z"/><path class="cls-1" d="M78.33,36.73a1.54,1.54,0,0,0-1.57,1.48,1.55,1.55,0,0,0,1.47,1.6,1.58,1.58,0,0,0,1-.33,6.64,6.64,0,0,1-.1-1.18,6.24,6.24,0,0,1,.13-1.22A1.51,1.51,0,0,0,78.33,36.73Z"/><path class="cls-1" d="M63.93,38.91a1.52,1.52,0,0,0-.93.36,17.18,17.18,0,0,1,2.15.2A1.55,1.55,0,0,0,63.93,38.91Z"/><path class="cls-1" d="M72.67,39.35a1.52,1.52,0,0,0-1.5-1.52h0a1.53,1.53,0,1,0,1.52,1.54Z"/><path class="cls-1" d="M111.7,33.28a1.52,1.52,0,0,0,.89-1.36,1.55,1.55,0,0,0-1.53-1.53,1.52,1.52,0,0,0-1.41.92A11.59,11.59,0,0,1,111.7,33.28Z"/><path class="cls-1" d="M75.23,38.8a1.51,1.51,0,1,0-1.54-1.49,1.49,1.49,0,0,0,1.49,1.49Z"/><path class="cls-1" d="M55.23,40.52A1.49,1.49,0,0,0,53.77,39h0a1.5,1.5,0,1,0,1.47,1.56Z"/><path class="cls-1" d="M62.37,39.26A1.5,1.5,0,0,0,60.9,37.9a1.52,1.52,0,0,0-1.52,1.52h0a.89.89,0,0,0,0,.23A12.59,12.59,0,0,1,62.37,39.26Z"/><path class="cls-1" d="M109.45,30.87A1.48,1.48,0,0,0,108,29.38a1.53,1.53,0,0,0-1,.37,13.79,13.79,0,0,1,2.45,1.39Z"/><path class="cls-1" d="M115.12,31.31a1.52,1.52,0,1,0-1.25-1.25A1.52,1.52,0,0,0,115.12,31.31Z"/><path class="cls-1" d="M46.12,40.16l.46-.08h0A1.44,1.44,0,0,0,46.12,40.16Z"/><path class="cls-1" d="M38.65,41.4l1.07-.18h-.31A1.45,1.45,0,0,0,38.65,41.4Z"/><path class="cls-1" d="M72.17,37.75a1.5,1.5,0,1,0-1.5-1.5A1.5,1.5,0,0,0,72.17,37.75Z"/><path class="cls-1" d="M79.35,36.66a7.79,7.79,0,0,1,1.12-2.43,1.46,1.46,0,0,0-1.13-.54,1.5,1.5,0,0,0,0,3Z"/><path class="cls-1" d="M66.44,37.33A1.5,1.5,0,0,0,65,35.87a1.48,1.48,0,1,0,1.47,1.49v0Z"/><path class="cls-1" d="M112,30.3a1.5,1.5,0,1,0-1.47-1.53A1.5,1.5,0,0,0,112,30.3Z"/><path class="cls-1" d="M59.27,38.44A1.47,1.47,0,0,0,57.78,37a1.5,1.5,0,0,0,0,3h0a1.47,1.47,0,0,0,1.49-1.45Z"/><path class="cls-1" d="M43.48,39.09A1.48,1.48,0,0,0,42,40.57v.27l2.91-.48A1.45,1.45,0,0,0,43.48,39.09Z"/><path class="cls-1" d="M51.61,40.62a1.47,1.47,0,1,0-2.45-1.13h0v.16l2.43-.4Z"/><path class="cls-1" d="M104.94,28.44a1.56,1.56,0,0,0-1,.3,18.18,18.18,0,0,1,2.28.7A1.45,1.45,0,0,0,104.94,28.44Z"/><path class="cls-1" d="M37.78,41.54a1.46,1.46,0,0,0-2.88-.25c.17.21.33.43.48.65Z"/><path class="cls-1" d="M77.69,34.22a1.46,1.46,0,1,0-1.47,1.45h0A1.47,1.47,0,0,0,77.69,34.22Z"/><path class="cls-1" d="M82.13,32.37c.25-.21.5-.42.77-.63A1.45,1.45,0,0,0,82.13,32.37Z"/><path class="cls-1" d="M63.37,36.39a1.46,1.46,0,1,0-1.46,1.46h0A1.47,1.47,0,0,0,63.37,36.39Z"/><path class="cls-1" d="M56.2,37.46a1.45,1.45,0,1,0-1.49,1.46,1.44,1.44,0,0,0,1.49-1.46Z"/><path class="cls-1" d="M117.6,26.75a1.46,1.46,0,1,0-2.91-.24,1,1,0,0,0,0,.24,1.46,1.46,0,0,0,2.91,0Z"/><path class="cls-1" d="M70.53,35.27a1.46,1.46,0,1,0-1.45,1.47h0a1.43,1.43,0,0,0,1.43-1.45Z"/><path class="cls-1" d="M110.37,27.8a1.45,1.45,0,0,0-1.43-1.47h0a1.46,1.46,0,1,0,1.43,1.47Z"/><path class="cls-1" d="M47.64,37.06a1.44,1.44,0,0,0-.15,2.87l.67-.11a1.41,1.41,0,0,0,.89-1.26,1.44,1.44,0,0,0-1.38-1.5Z"/><path class="cls-1" d="M101.74,27.43a1.42,1.42,0,0,0-1.21.72c.93.1,1.82.22,2.66.39A1.46,1.46,0,0,0,101.74,27.43Z"/><path class="cls-1" d="M40.35,38.14a1.45,1.45,0,1,0,1.45,1.45A1.45,1.45,0,0,0,40.35,38.14Z"/><path class="cls-1" d="M33.27,39.24a1.3,1.3,0,0,0-.48.07A11.79,11.79,0,0,1,34.63,41a1.5,1.5,0,0,0,0-.3,1.41,1.41,0,0,0-1.36-1.46Z"/><path class="cls-1" d="M107.33,26.84a1.39,1.39,0,1,0-2.76.09,1.43,1.43,0,0,0,1.31,1.31A1.45,1.45,0,0,0,107.33,26.84Z"/><path class="cls-1" d="M67.4,34.23a1.4,1.4,0,0,0-1.4-1.4,1.43,1.43,0,0,0,0,2.86,1.41,1.41,0,0,0,1.4-1.42Z"/><path class="cls-1" d="M51.67,37.86a1.43,1.43,0,0,0,0-2.85,1.43,1.43,0,0,0-.24,2.85Z"/><path class="cls-1" d="M81.72,32.15a1.41,1.41,0,0,0-1.37-1.45h0a1.44,1.44,0,1,0,0,2.88A1.41,1.41,0,0,0,81.72,32.15Z"/><path class="cls-1" d="M74.58,33.16a1.45,1.45,0,0,0-1.48-1.42h0a1.43,1.43,0,0,0,.08,2.86h0A1.45,1.45,0,0,0,74.58,33.16Z"/><path class="cls-1" d="M91.56,27.57a1.41,1.41,0,0,0-1.34,1.08c.81-.17,1.64-.32,2.54-.43A1.42,1.42,0,0,0,91.56,27.57Z"/><path class="cls-1" d="M60.26,35.39a1.43,1.43,0,0,0-1.42-1.46h0a1.42,1.42,0,0,0,0,2.84A1.45,1.45,0,0,0,60.26,35.39Z"/><path class="cls-1" d="M114.47,25.75a1.39,1.39,0,0,0-1.34-1.44h0a1.42,1.42,0,0,0,0,2.84A1.39,1.39,0,0,0,114.47,25.75Z"/><path class="cls-1" d="M83.63,31.22a17.56,17.56,0,0,1,2.14-1.14h0a1.44,1.44,0,0,0-1.37-1.42,1.41,1.41,0,0,0-.78,2.61Z"/><path class="cls-1" d="M38.75,38.6a1.38,1.38,0,0,0-1.31-1.44A1.42,1.42,0,0,0,37.28,40h0a1.37,1.37,0,0,0,1.47-1.27Z"/><path class="cls-1" d="M44.52,36.12a1.41,1.41,0,0,0-.24,2.81h.24a1.41,1.41,0,0,0,.24-2.81Z"/><path class="cls-1" d="M100.13,28.11a1,1,0,0,0,0-.24,1.38,1.38,0,0,0-1.39-1.37h0a1.41,1.41,0,0,0-1.39,1.43h0V28A23.33,23.33,0,0,1,100.13,28.11Z"/><path class="cls-1" d="M77.21,29.71a1.4,1.4,0,1,0,1.4,1.41,1.38,1.38,0,0,0-1.35-1.41Z"/><path class="cls-1" d="M70.05,33.61a1.41,1.41,0,0,0,0-2.82h0a1.4,1.4,0,0,0-1.37,1.43v0A1.42,1.42,0,0,0,70.05,33.61Z"/><path class="cls-1" d="M117.14,22.28a1.39,1.39,0,0,0-.24,2.77h.24a1.39,1.39,0,0,0,0-2.77Z"/><path class="cls-1" d="M62.86,34.67a1.39,1.39,0,1,0-1.36-1.42v0a1.36,1.36,0,0,0,1.34,1.38Z"/><path class="cls-1" d="M55.71,35.78a1.41,1.41,0,1,0-1.38-1.44v0A1.43,1.43,0,0,0,55.71,35.78Z"/><path class="cls-1" d="M110,26.16a1.41,1.41,0,1,0-1.29-1.29A1.42,1.42,0,0,0,110,26.16Z"/><path class="cls-1" d="M104.19,25.77a1.39,1.39,0,1,0-1.37,1.41h0A1.4,1.4,0,0,0,104.19,25.77Z"/><path class="cls-1" d="M2.75,44.53a1.23,1.23,0,0,0,.14-.6,1.38,1.38,0,0,0-1.38-1.38h0a1.39,1.39,0,0,0-.24,2.77H1.5a1.37,1.37,0,0,0,.94-.38Z"/><path class="cls-1" d="M48.58,36.8a1.4,1.4,0,1,0-1.39-1.41v0A1.39,1.39,0,0,0,48.58,36.8Z"/><path class="cls-1" d="M94.93,28c.5,0,1,0,1.53-.05a1.37,1.37,0,0,0-.88-2.46A1.37,1.37,0,0,0,94.93,28Z"/><path class="cls-1" d="M35.64,37.58a1.4,1.4,0,0,0-1.38-1.39,1.39,1.39,0,0,0,0,2.78A1.4,1.4,0,0,0,35.64,37.58Z"/><path class="cls-1" d="M41.4,37.87a1.36,1.36,0,0,0,1.39-1.33v0a1.37,1.37,0,0,0-1.34-1.4h0a1.38,1.38,0,0,0,0,2.76h0Z"/><path class="cls-1" d="M88,29.24a14.23,14.23,0,0,1,1.61-.45,1.38,1.38,0,0,0,.28-.83,1.37,1.37,0,0,0-1.36-1.38h0A1.38,1.38,0,0,0,88,29.24Z"/><path class="cls-1" d="M82.72,29.05a1.4,1.4,0,0,0-1.39-1.38,1.38,1.38,0,1,0,1.39,1.38Z"/><path class="cls-1" d="M72.79,30.11a1.44,1.44,0,0,0,2.86.14,1.37,1.37,0,0,0-1.26-1.49.88.88,0,0,0-.23,0A1.39,1.39,0,0,0,72.79,30.11Z"/><path class="cls-1" d="M67,32.53a1.34,1.34,0,0,0,1.35-1.35v0A1.36,1.36,0,0,0,67,29.8h0a1.4,1.4,0,0,0-1.34,1.37A1.38,1.38,0,0,0,67,32.53Z"/><path class="cls-1" d="M59.82,33.62a1.37,1.37,0,0,0,.23-2.73.88.88,0,0,0-.23,0,1.37,1.37,0,0,0,0,2.73Z"/><path class="cls-1" d="M6.41,40.81a1.34,1.34,0,0,0-.86-.3,1.36,1.36,0,0,0-1.36,1.36,1.38,1.38,0,0,0,.21.72A20,20,0,0,1,6.41,40.81Z"/><path class="cls-1" d="M118.88,32.16v-2.7a1.5,1.5,0,0,0-1.91.47,1.53,1.53,0,0,0,0,1.86A1.46,1.46,0,0,0,118.88,32.16Z"/><path class="cls-1" d="M114,24a1.4,1.4,0,1,0-.23,0Z"/><path class="cls-1" d="M45.49,35.79a1.36,1.36,0,1,0,0-2.72h0a1.36,1.36,0,1,0,.05,2.72Z"/><path class="cls-1" d="M101.06,24.79a1.36,1.36,0,1,0-1.35,1.38h0a1.36,1.36,0,0,0,1.35-1.37Z"/><path class="cls-1" d="M106.88,25.07a1.35,1.35,0,1,0-1.35-1.35A1.34,1.34,0,0,0,106.88,25.07Z"/><path class="cls-1" d="M52.63,34.69a1.35,1.35,0,1,0-1.35-1.35A1.34,1.34,0,0,0,52.63,34.69Z"/><path class="cls-1" d="M86.74,27a1.35,1.35,0,1,0-1.37,1.33A1.37,1.37,0,0,0,86.74,27Z"/><path class="cls-1" d="M93.91,25.91a1.34,1.34,0,1,0-1.35,1.33A1.35,1.35,0,0,0,93.91,25.91Z"/><path class="cls-1" d="M39.67,35.53a1.32,1.32,0,0,0-1.29-1.35h0a1.34,1.34,0,1,0,1.32,1.35Z"/><path class="cls-1" d="M76.9,28a1.34,1.34,0,1,0,1.32-1.37A1.36,1.36,0,0,0,76.9,28Z"/><path class="cls-1" d="M23.8,36.31l.68.07a1.32,1.32,0,0,0-.48-.09Z"/><path class="cls-1" d="M9.7,38.47a1.32,1.32,0,0,0-1.28,1c.54-.32,1.1-.62,1.67-.9A1.32,1.32,0,0,0,9.7,38.47Z"/><path class="cls-1" d="M31.17,37.89a1.34,1.34,0,1,0-1.35-1.34,1.34,1.34,0,0,0,1.35,1.34Z"/><path class="cls-1" d="M3.85,40.91a1.3,1.3,0,0,0-1.27-1.33H2.52a1.33,1.33,0,1,0-.23,2.65.89.89,0,0,0,.23,0A1.3,1.3,0,0,0,3.85,41Z"/><path class="cls-1" d="M69.75,29.12A1.3,1.3,0,0,0,71,30.43h0a1.33,1.33,0,1,0,.23-2.65.89.89,0,0,0-.23,0,1.3,1.3,0,0,0-1.31,1.29Z"/><path class="cls-1" d="M58.1,31.26A1.31,1.31,0,0,0,56.73,30a1.29,1.29,0,0,0-1.29,1.29v0a1.31,1.31,0,0,0,1.28,1.34h.05A1.34,1.34,0,0,0,58.1,31.3Z"/><path class="cls-1" d="M65.24,30.19a1.32,1.32,0,0,0-1.31-1.33h0a1.34,1.34,0,0,0,0,2.67,1.32,1.32,0,0,0,1.34-1.3Z"/><path class="cls-1" d="M109.62,21.7a1.3,1.3,0,0,0,1.3,1.3H111a1.32,1.32,0,0,0,0-2.64h0a1.31,1.31,0,0,0-1.38,1.22Z"/><path class="cls-1" d="M50.92,32.35A1.32,1.32,0,0,0,49.65,31h0a1.33,1.33,0,0,0,0,2.66h0A1.31,1.31,0,0,0,50.92,32.35Z"/><path class="cls-1" d="M103.77,21.43a1.32,1.32,0,1,0,0,2.64h0a1.32,1.32,0,1,0,0-2.64Z"/><path class="cls-1" d="M35.18,33.17a1.32,1.32,0,1,0,1.37,1.32,1.34,1.34,0,0,0-1.36-1.32Z"/><path class="cls-1" d="M90.77,24.87a1.31,1.31,0,0,0-1.29-1.32,1.34,1.34,0,0,0-1.34,1.29,1.32,1.32,0,1,0,2.63.23.89.89,0,0,0,0-.23Z"/><path class="cls-1" d="M43.69,33.38a1.29,1.29,0,0,0-1.29-1.29h0a1.31,1.31,0,1,0,0,2.62h0a1.29,1.29,0,0,0,1.31-1.27Z"/><path class="cls-1" d="M97.94,23.75a1.31,1.31,0,1,0,0,.06Z"/><path class="cls-1" d="M22.14,36.21a1.36,1.36,0,0,0-1.22-.86,1.3,1.3,0,0,0-1.22.88h1.45Z"/><path class="cls-1" d="M73.83,27.05a1.33,1.33,0,0,0,1.32,1.3,1.27,1.27,0,0,0,1.29-1.27V27a1.31,1.31,0,0,0-1.3-1.31A1.34,1.34,0,0,0,73.83,27.05Z"/><path class="cls-1" d="M69.29,28.14A1.29,1.29,0,0,0,68,26.84h0a1.29,1.29,0,1,0,1.31,1.3Z"/><path class="cls-1" d="M28.09,36.88a1.35,1.35,0,1,0-.26,0h.26Z"/><path class="cls-1" d="M13.74,36.46a1.29,1.29,0,0,0-1.28,1.12c.74-.26,1.5-.47,2.27-.66A1.29,1.29,0,0,0,13.74,36.46Z"/><path class="cls-1" d="M83.62,25.94A1.31,1.31,0,0,0,81,26h0a1.29,1.29,0,0,0,1.3,1.28h0A1.31,1.31,0,0,0,83.62,26Z"/><path class="cls-1" d="M115.06,18.3a1.3,1.3,0,1,0,1.3,1.3A1.3,1.3,0,0,0,115.06,18.3Z"/><path class="cls-1" d="M55,30.25a1.29,1.29,0,1,0-1.32,1.3A1.32,1.32,0,0,0,55,30.25Z"/><path class="cls-1" d="M7.89,38.79a1.3,1.3,0,1,0-1.32,1.28,1.28,1.28,0,0,0,1.32-1.24Z"/><path class="cls-1" d="M62.12,29.17a1.3,1.3,0,1,0-2.59-.23.89.89,0,0,0,0,.23,1.3,1.3,0,0,0,2.59,0Z"/><path class="cls-1" d="M109.19,20.6a1.29,1.29,0,1,0-1.28,1.32,1.31,1.31,0,0,0,1.28-1.32Z"/><path class="cls-1" d="M47.8,31.32a1.28,1.28,0,1,0-1.28,1.3h0a1.28,1.28,0,0,0,1.28-1.28Z"/><path class="cls-1" d="M94.87,22.81a1.31,1.31,0,0,0-1.32-1.29,1.29,1.29,0,0,0,0,2.57A1.3,1.3,0,0,0,94.87,22.81Z"/><path class="cls-1" d="M40.63,32.45a1.28,1.28,0,0,0-2.56,0,1.28,1.28,0,1,0,2.56,0Z"/><path class="cls-1" d="M102,21.71A1.28,1.28,0,1,0,100.71,23h.06A1.26,1.26,0,0,0,102,21.71Z"/><path class="cls-1" d="M33.47,33.53a1.25,1.25,0,0,0-1.24-1.28h0A1.27,1.27,0,1,0,32,34.78h.23A1.27,1.27,0,0,0,33.47,33.53Z"/><path class="cls-1" d="M87.65,23.87a1.29,1.29,0,0,0-1.3-1.25,1.27,1.27,0,1,0,0,2.54h0a1.27,1.27,0,0,0,1.3-1.24Z"/><path class="cls-1" d="M72.05,24.74A1.27,1.27,0,1,0,73.32,26,1.27,1.27,0,0,0,72.05,24.74Z"/><path class="cls-1" d="M79.21,26.26a1.28,1.28,0,0,0,1.16-1.39,1.26,1.26,0,0,0-1.16-1.16A1.28,1.28,0,1,0,79,26.26Z"/><path class="cls-1" d="M18.88,36.28a1.25,1.25,0,0,0-1-1.91h-.05a1.28,1.28,0,0,0-1.31,1.24,1.24,1.24,0,0,0,.35.89C17.55,36.41,18.21,36.33,18.88,36.28Z"/><path class="cls-1" d="M26.25,34.53A1.2,1.2,0,1,0,25,35.81a1.26,1.26,0,0,0,1.25-1.28Z"/><path class="cls-1" d="M11.93,36.73a1.29,1.29,0,0,0-1.28-1.27,1.26,1.26,0,0,0,0,2.52h0A1.26,1.26,0,0,0,11.93,36.73Z"/><path class="cls-1" d="M66.14,27.11a1.24,1.24,0,0,0-1.21-1.27h0a1.26,1.26,0,1,0,1.25,1.29Z"/><path class="cls-1" d="M106.06,19.66a1.27,1.27,0,0,0-1.23-1.25,1.25,1.25,0,1,0-.07,2.5A1.29,1.29,0,0,0,106.06,19.66Z"/><path class="cls-1" d="M50.55,28a1.26,1.26,0,0,0,.05,2.51,1.24,1.24,0,0,0,1.22-1.25A1.25,1.25,0,0,0,50.56,28Z"/><path class="cls-1" d="M4.75,37.85a1.23,1.23,0,0,0-1.17-1.29H3.51a1.25,1.25,0,1,0,1.24,1.29Z"/><path class="cls-1" d="M59,28.21a1.27,1.27,0,0,0-1.27-1.27h0a1.25,1.25,0,0,0,0,2.5A1.28,1.28,0,0,0,59,28.21Z"/><path class="cls-1" d="M112,17.33a1.24,1.24,0,1,0,0,2.48h0a1.24,1.24,0,0,0,0-2.48Z"/><path class="cls-1" d="M44.67,30.35A1.3,1.3,0,1,0,43.2,31.6h.22a1.25,1.25,0,0,0,1.25-1.23Z"/><path class="cls-1" d="M97.64,22a1.24,1.24,0,0,0,0-2.47A1.24,1.24,0,1,0,97.42,22,.81.81,0,0,0,97.64,22Z"/><path class="cls-1" d="M37.5,31.4a1.23,1.23,0,0,0-1.23-1.23h0A1.23,1.23,0,1,0,37.5,31.4Z"/><path class="cls-1" d="M30.34,32.49a1.27,1.27,0,0,0-1.23-1.25,1.25,1.25,0,0,0,0,2.49A1.29,1.29,0,0,0,30.34,32.49Z"/><path class="cls-1" d="M90.49,23a1.23,1.23,0,1,0,.22-2.45.81.81,0,0,0-.22,0A1.23,1.23,0,1,0,90.27,23,.81.81,0,0,0,90.49,23Z"/><path class="cls-1" d="M83.33,24.1a1.24,1.24,0,1,0-1.22-1.26,1.25,1.25,0,0,0,1.22,1.26Z"/><path class="cls-1" d="M23.17,33.57A1.22,1.22,0,0,0,22,32.35h0a1.22,1.22,0,1,0,1.24,1.22Z"/><path class="cls-1" d="M76.17,22.74A1.22,1.22,0,1,0,76,25.17h.22a1.22,1.22,0,0,0,0-2.43Z"/><path class="cls-1" d="M118.41,19.28a1.32,1.32,0,0,0-1.41.62,1.38,1.38,0,0,0,.11,1.5,1.33,1.33,0,0,0,1.49.43.4.4,0,0,0,.31-.42V19.46A4.24,4.24,0,0,0,118.41,19.28Z"/><path class="cls-1" d="M69,23.82a1.22,1.22,0,1,0,1.17,1.27v0A1.21,1.21,0,0,0,69,23.82Z"/><path class="cls-1" d="M16,34.65a1.23,1.23,0,0,0-1.24-1.22h0A1.23,1.23,0,1,0,16,34.67Z"/><path class="cls-1" d="M114.82,16.53A1.22,1.22,0,0,0,116,17.71a1.21,1.21,0,0,0,.22-2.41.81.81,0,0,0-.22,0A1.22,1.22,0,0,0,114.82,16.53Z"/><path class="cls-1" d="M61.82,27.34a1.23,1.23,0,0,0,1.2-1.2,1.21,1.21,0,0,0-1.2-1.22h0a1.21,1.21,0,0,0,0,2.42Z"/><path class="cls-1" d="M8.78,35.73a1.19,1.19,0,0,0-1.19-1.19h0a1.21,1.21,0,1,0,0,2.42h0a1.2,1.2,0,0,0,1.2-1.2Z"/><path class="cls-1" d="M53.43,27.17a1.22,1.22,0,0,0,1.21,1.19,1.21,1.21,0,0,0,0-2.41A1.22,1.22,0,0,0,53.43,27.17Z"/><path class="cls-1" d="M107.68,17.56a1.19,1.19,0,0,0,1.14,1.24h0a1.23,1.23,0,0,0,1.26-1.18v0a1.24,1.24,0,0,0-1.19-1.22,1.2,1.2,0,0,0-1.22,1.18Z"/><path class="cls-1" d="M93.37,19.7a1.18,1.18,0,0,0,1.15,1.21h0a1.2,1.2,0,0,0,1.21-1.18,1.23,1.23,0,0,0-1.19-1.22A1.2,1.2,0,0,0,93.37,19.7Z"/><path class="cls-1" d="M39.12,29.32a1.22,1.22,0,0,0,1.19,1.21,1.2,1.2,0,0,0,0-2.39A1.22,1.22,0,0,0,39.12,29.32Z"/><path class="cls-1" d="M46.29,28.26a1.19,1.19,0,0,0,1.19,1.19h0a1.2,1.2,0,1,0,0-2.4h0a1.18,1.18,0,0,0-1.21,1.15Z"/><path class="cls-1" d="M100.51,18.63a1.23,1.23,0,0,0,1.21,1.2,1.19,1.19,0,0,0,1.19-1.19v0a1.18,1.18,0,0,0-1.17-1.19h0a1.2,1.2,0,0,0-1.2,1.2Z"/><path class="cls-1" d="M32,30.4a1.16,1.16,0,0,0,1.12,1.2h.05a1.19,1.19,0,0,0,1.22-1.16v0a1.2,1.2,0,0,0-1.22-1.18h0A1.18,1.18,0,0,0,32,30.4Z"/><path class="cls-1" d="M86.2,20.78A1.19,1.19,0,0,0,87.36,22h0a1.15,1.15,0,0,0,1.18-1.12v-.07a1.16,1.16,0,0,0-1.15-1.17h-.06A1.19,1.19,0,0,0,86.2,20.78Z"/><path class="cls-1" d="M27.19,31.5a1.19,1.19,0,0,0-2.37,0A1.22,1.22,0,0,0,26,32.7a1.19,1.19,0,0,0,1.19-1.19Z"/><path class="cls-1" d="M79.06,21.89a1.19,1.19,0,1,0,1.2-1.19A1.2,1.2,0,0,0,79.06,21.89Z"/><path class="cls-1" d="M20,32.52a1.18,1.18,0,1,0-1.19,1.17A1.2,1.2,0,0,0,20,32.52Z"/><path class="cls-1" d="M71.9,23a1.18,1.18,0,0,0,1.16,1.2h0A1.17,1.17,0,1,0,71.9,23Z"/><path class="cls-1" d="M12.86,33.64a1.17,1.17,0,1,0-1.22,1.15,1.15,1.15,0,0,0,1.22-1.06Z"/><path class="cls-1" d="M57.6,25.12a1.17,1.17,0,1,0,2.34,0h0a1.2,1.2,0,0,0-1.16-1.18,1.18,1.18,0,0,0-1.18,1.18Z"/><path class="cls-1" d="M64.75,24A1.18,1.18,0,1,0,66,22.84a1.16,1.16,0,0,0-1.25,1.07Z"/><path class="cls-1" d="M3.36,34.73A1.21,1.21,0,0,0,4.53,35.9a1.18,1.18,0,0,0,0-2.36A1.21,1.21,0,0,0,3.36,34.73Z"/><path class="cls-1" d="M111.79,15.5A1.17,1.17,0,0,0,113,16.65h0a1.18,1.18,0,1,0-1.21-1.2Z"/><path class="cls-1" d="M104.62,16.57a1.11,1.11,0,1,0,1.16-1.16,1.16,1.16,0,0,0-1.16,1.16Z"/><path class="cls-1" d="M50.4,26.12a1.13,1.13,0,0,0,1,1.22h0A1.17,1.17,0,0,0,51.62,25a1.15,1.15,0,0,0-1.22,1.06Z"/><path class="cls-1" d="M97.48,17.65a1.14,1.14,0,0,0,1.14,1.16h0a1.16,1.16,0,0,0,0-2.31,1.14,1.14,0,0,0-1.16,1.12Z"/><path class="cls-1" d="M43.23,27.3a1.16,1.16,0,1,0,2.31-.05,1.14,1.14,0,0,0-1.16-1.14h0A1.18,1.18,0,0,0,43.23,27.3Z"/><path class="cls-1" d="M36.09,28.38a1.13,1.13,0,0,0,1.13,1.13h.05a1.15,1.15,0,0,0,0-2.3,1.13,1.13,0,0,0-1.18,1.08Z"/><path class="cls-1" d="M90.31,18.73a1.18,1.18,0,0,0,1.17,1.16,1.15,1.15,0,1,0-1.17-1.16Z"/><path class="cls-1" d="M83.18,19.82a1.12,1.12,0,0,0,1.15,1.09h0a1.14,1.14,0,1,0,0-2.28,1.12,1.12,0,0,0-1.15,1.09Z"/><path class="cls-1" d="M28.92,29.37a1.17,1.17,0,0,0,1.16,1.16,1.14,1.14,0,0,0,0-2.28A1.17,1.17,0,0,0,28.92,29.37Z"/><path class="cls-1" d="M16.88,31.55a1.19,1.19,0,1,0-1.34,1.15h.21a1.14,1.14,0,0,0,1.13-1.13Z"/><path class="cls-1" d="M68.87,22A1.11,1.11,0,0,0,70,23.08a1.14,1.14,0,0,0,.21-2.27H70a1.13,1.13,0,0,0-1.13,1.13Z"/><path class="cls-1" d="M24.06,30.49a1.16,1.16,0,0,0-1.12-1.14,1.13,1.13,0,1,0,1.12,1.14Z"/><path class="cls-1" d="M76,20.85A1.14,1.14,0,0,0,77.13,22h0a1.11,1.11,0,0,0,1.15-1.07v0a1.14,1.14,0,0,0-1.1-1.16h0A1.15,1.15,0,0,0,76,20.85Z"/><path class="cls-1" d="M61.7,23.05a1.13,1.13,0,0,0,1.15,1.1,1.12,1.12,0,1,0,.21-2.23.74.74,0,0,0-.21,0A1.12,1.12,0,0,0,61.7,23Z"/><path class="cls-1" d="M.32,33.75a1.14,1.14,0,0,0,1.14,1.12,1.13,1.13,0,0,0,.13-2.26h-.2A1.14,1.14,0,0,0,.32,33.75Z"/><path class="cls-1" d="M108.79,14.49a1.12,1.12,0,1,0,2.23.21.74.74,0,0,0,0-.21,1.12,1.12,0,0,0-2.23-.21A.74.74,0,0,0,108.79,14.49Z"/><path class="cls-1" d="M54.56,24.14A1.12,1.12,0,1,0,55.67,23,1.14,1.14,0,0,0,54.56,24.14Z"/><path class="cls-1" d="M117.05,12.3a1.12,1.12,0,1,0,1.14,1.1,1.12,1.12,0,0,0-1.14-1.1Z"/><path class="cls-1" d="M7.48,32.67a1.1,1.1,0,0,0,1.1,1.1h0a1.12,1.12,0,0,0,.21-2.23H8.61a1.11,1.11,0,0,0-1.13,1.09Z"/><path class="cls-1" d="M101.63,15.58a1.1,1.1,0,0,0,1.09,1.11h0a1.1,1.1,0,0,0,0-2.2h0a1.1,1.1,0,0,0-1.13,1.07Z"/><path class="cls-1" d="M47.41,25.15a1.12,1.12,0,0,0,1.12,1.12A1.14,1.14,0,1,0,48.48,24a1.11,1.11,0,0,0-1.07,1.15Z"/><path class="cls-1" d="M40.25,26.21a1.09,1.09,0,0,0,1,1.13h.05a1.07,1.07,0,0,0,1.1-1v0a1.09,1.09,0,0,0-1-1.14h0A1.11,1.11,0,0,0,40.25,26.21Z"/><path class="cls-1" d="M33.11,27.31a1.08,1.08,0,0,0,1,1.12,1.11,1.11,0,0,0,1.14-1.08v0a1.12,1.12,0,0,0-1.09-1.1A1.11,1.11,0,0,0,33.11,27.31Z"/><path class="cls-1" d="M87.29,17.7a1.09,1.09,0,0,0,1.07,1.11h0a1.1,1.1,0,1,0-1.08-1.11Z"/><path class="cls-1" d="M94.5,16.57a1.07,1.07,0,0,0,1,1.14h.08a1.09,1.09,0,1,0,0-2.18A1.08,1.08,0,0,0,94.5,16.57Z"/><path class="cls-1" d="M25.9,28.38a1.07,1.07,0,0,0,1,1.13H27a1.09,1.09,0,0,0,0-2.18,1.07,1.07,0,0,0-1.1,1Z"/><path class="cls-1" d="M18.73,29.5a1,1,0,1,0,1.08-1.08A1.1,1.1,0,0,0,18.73,29.5Z"/><path class="cls-1" d="M80.12,18.82a1.1,1.1,0,0,0,1.12,1.06,1.05,1.05,0,0,0,1.05-1.07v0a1.08,1.08,0,0,0-1.09-1.07h0A1.11,1.11,0,0,0,80.12,18.82Z"/><path class="cls-1" d="M11.6,30.64a1.08,1.08,0,0,0,1.06,1,1.09,1.09,0,1,0,.21-2.17h-.21a1.08,1.08,0,0,0-1.06,1.1Z"/><path class="cls-1" d="M65.82,21a1.09,1.09,0,1,0,1.06-1.11A1.08,1.08,0,0,0,65.82,21Z"/><path class="cls-1" d="M73,19.92a1.05,1.05,0,0,0,1.07,1,1.08,1.08,0,1,0,.21-2.15h-.21A1,1,0,0,0,73,19.82Z"/><path class="cls-1" d="M4.43,31.63A1.09,1.09,0,0,0,5.48,32.7a1.08,1.08,0,0,0,0-2.15A1.1,1.1,0,0,0,4.43,31.63Z"/><path class="cls-1" d="M58.67,22a1,1,0,1,0,0-.06Z"/><path class="cls-1" d="M113.94,11.31A1.07,1.07,0,1,0,115,12.38a1.07,1.07,0,0,0-1.07-1.07Z"/><path class="cls-1" d="M44.36,24.15a1.06,1.06,0,0,0,1,1.12,1.06,1.06,0,1,0,.12-2.12h0A1.1,1.1,0,0,0,44.36,24.15Z"/><path class="cls-1" d="M51.52,23.13a1.06,1.06,0,1,0,1-1.09h0a1,1,0,0,0-1,1Z"/><path class="cls-1" d="M106.82,12.42a1.05,1.05,0,1,0,1.05,1.06,1,1,0,0,0-.94-1.06Z"/><path class="cls-1" d="M99.66,13.5a1.06,1.06,0,1,0,1.06,1.06A1.05,1.05,0,0,0,99.66,13.5Z"/><path class="cls-1" d="M37.22,25.24a1,1,0,0,0,.93,1.07h.07a1,1,0,0,0,0-2.08,1,1,0,0,0-1,1Z"/><path class="cls-1" d="M92.53,14.61a1,1,0,0,0-1.08.92v.08a1,1,0,0,0,.94,1.06h.06a1,1,0,0,0,1-1v-.05A1,1,0,0,0,92.53,14.61Z"/><path class="cls-1" d="M30.06,26.34a1.05,1.05,0,1,0,1.06-1A1.05,1.05,0,0,0,30.06,26.34Z"/><path class="cls-1" d="M85.3,15.69a1,1,0,0,0,0,2.09,1,1,0,1,0,0-2.09Z"/><path class="cls-1" d="M71,17.83a1.05,1.05,0,0,0-1.07,1,1,1,0,0,0,1,1,1,1,0,1,0,0-2Z"/><path class="cls-1" d="M22.92,27.34a1,1,0,0,0,.92,1.08h.08a1,1,0,0,0,0-2.06A1,1,0,0,0,22.92,27.34Z"/><path class="cls-1" d="M17.81,28.49a1,1,0,0,0-1-1,1,1,0,1,0,0,2.05,1,1,0,0,0,1-1Z"/><path class="cls-1" d="M78.16,16.74a1,1,0,0,0-1,1,1.06,1.06,0,0,0,1.06,1,1,1,0,0,0,1-1v-.08A1,1,0,0,0,78.16,16.74Z"/><path class="cls-1" d="M2.43,29.63a1,1,0,1,0,1,1A1,1,0,0,0,2.43,29.63Z"/><path class="cls-1" d="M9.56,30.57a1,1,0,1,0-1-1A1,1,0,0,0,9.56,30.57Z"/><path class="cls-1" d="M63.8,18.94a1,1,0,1,0,1,1h0a1,1,0,0,0-1-1Z"/><path class="cls-1" d="M110.88,10.4a1,1,0,1,0,1,1A1,1,0,0,0,110.88,10.4Z"/><path class="cls-1" d="M56.62,20a1,1,0,1,0,1,1A1,1,0,0,0,56.62,20Z"/><path class="cls-1" d="M0,37.92a1.21,1.21,0,0,0,1.42-.54,1.19,1.19,0,0,0,0-1.38A1.11,1.11,0,0,0,0,35.68Z"/><path class="cls-1" d="M96.57,12.59a1,1,0,1,0,1,1A1,1,0,0,0,96.57,12.59Z"/><path class="cls-1" d="M42.3,22.21a1,1,0,1,0,1,1A1,1,0,0,0,42.3,22.21Z"/><path class="cls-1" d="M118,9.32a1,1,0,0,0,0,2c.59,0,.85-.32.85-1S118.63,9.32,118,9.32Z"/><path class="cls-1" d="M49.52,21.13a1,1,0,1,0,1,1A1,1,0,0,0,49.52,21.13Z"/><path class="cls-1" d="M103.71,11.51a1,1,0,1,0,1,1A1,1,0,0,0,103.71,11.51Z"/><path class="cls-1" d="M35.19,23.25a1,1,0,1,0,1,1A1,1,0,0,0,35.19,23.25Z"/><path class="cls-1" d="M89.39,13.63a1,1,0,1,0,1,1A1,1,0,0,0,89.39,13.63Z"/><path class="cls-1" d="M82.22,14.73a1,1,0,1,0,.71.72,1,1,0,0,0-.78-.73Z"/><path class="cls-1" d="M28,24.35a1,1,0,1,0-.44,1.95,1.09,1.09,0,0,0,.44,0,1,1,0,1,0,.44-1.95A1.09,1.09,0,0,0,28,24.35Z"/><path class="cls-1" d="M21.82,26.43a1,1,0,0,0-1-1,1,1,0,0,0,0,1.94A1,1,0,0,0,21.82,26.43Z"/><path class="cls-1" d="M14.66,27.49a1,1,0,1,0-.92,1.05A1,1,0,0,0,14.66,27.49Z"/><path class="cls-1" d="M67.94,16.92a1.05,1.05,0,1,0,.7.77,1,1,0,0,0-.7-.7Z"/><path class="cls-1" d="M75.06,15.83a.93.93,0,0,0-.93,1v0a.93.93,0,0,0,.91,1h0a1,1,0,1,0,.56-1.92,1.06,1.06,0,0,0-.56,0Z"/><path class="cls-1" d="M6.58,27.65a.94.94,0,1,0,.91,1,.94.94,0,0,0-.91-1Z"/><path class="cls-1" d="M60.82,18a.94.94,0,0,0-.07,1.88h0A.94.94,0,0,0,60.82,18Z"/><path class="cls-1" d="M114,9.33a1,1,0,1,0,1-.92.94.94,0,0,0-1,.86Z"/><path class="cls-1" d="M106.86,10.41a.91.91,0,0,0,.91.9.93.93,0,0,0,0-1.86h0a.89.89,0,0,0-.91.89Z"/><path class="cls-1" d="M53.56,19.07a.93.93,0,1,0,.93.93v0A.92.92,0,0,0,53.56,19.07Z"/><path class="cls-1" d="M117.7,27.81a1.33,1.33,0,0,0,1.19,1.29V26.33A1.42,1.42,0,0,0,117.7,27.81Z"/><path class="cls-1" d="M39.22,21.26a.91.91,0,0,0-.91.9.93.93,0,0,0,.92.94h0a.9.9,0,0,0,.9-.92V22.1A.89.89,0,0,0,39.22,21.26Z"/><path class="cls-1" d="M46.39,20.15a.93.93,0,0,0-.92.9.93.93,0,1,0,.92-.9Z"/><path class="cls-1" d="M92.56,12.6a.9.9,0,0,0,.92.88h0a.93.93,0,0,0,.19-1.85.61.61,0,0,0-.19,0,.9.9,0,0,0-.93.87Z"/><path class="cls-1" d="M99.69,11.44a1,1,0,0,0,.93,1,.94.94,0,0,0,0-1.88A1,1,0,0,0,99.69,11.44Z"/><path class="cls-1" d="M32.09,22.35a.92.92,0,0,0-.19,1.83.61.61,0,0,0,.19,0,.92.92,0,0,0,.82-1A.93.93,0,0,0,32.09,22.35Z"/><path class="cls-1" d="M85.39,13.65a.93.93,0,0,0,1,.91h0a.92.92,0,1,0-1-.91Z"/><path class="cls-1" d="M25.82,24.38a.9.9,0,0,0-.86-.94h0a.92.92,0,1,0-.23,1.82h.18A.92.92,0,0,0,25.82,24.38Z"/><path class="cls-1" d="M78.26,14.74a.9.9,0,0,0,.9.9h0a.91.91,0,0,0,0-1.82.9.9,0,0,0-.9.9Z"/><path class="cls-1" d="M17.72,26.29a.92.92,0,0,0,1-.79.91.91,0,0,0-.79-1h-.18a.91.91,0,0,0-.05,1.81Z"/><path class="cls-1" d="M71.09,15.84a.9.9,0,0,0,1.8,0v-.05a.89.89,0,0,0-.88-.9h0a.9.9,0,0,0-.9.9Z"/><path class="cls-1" d="M56.8,18a.9.9,0,0,0,.92.84.92.92,0,0,0,.84-.92A.88.88,0,0,0,56.8,18Z"/><path class="cls-1" d="M3.45,28.45a.89.89,0,0,0,0-1.78h0a.92.92,0,0,0-.9.86.9.9,0,0,0,.88.92Z"/><path class="cls-1" d="M64.84,17.73a.88.88,0,1,0,0-1.76.89.89,0,0,0-.87.86.88.88,0,0,0,.86.9Z"/><path class="cls-1" d="M10.56,27.35a.88.88,0,1,0-.85-.91v0A.88.88,0,0,0,10.56,27.35Z"/><path class="cls-1" d="M111.91,9.2a.88.88,0,0,0,0-1.76h0a.88.88,0,1,0,0,1.76Z"/><path class="cls-1" d="M104.77,10.27a.86.86,0,0,0,.85-.87h0a.89.89,0,0,0-.88-.85.87.87,0,0,0,0,1.73Z"/><path class="cls-1" d="M50.52,19.89a.87.87,0,1,0-.19,0Z"/><path class="cls-1" d="M97.52,11.35a.86.86,0,0,0,.19-1.71h-.19a.86.86,0,0,0-.76.95A.85.85,0,0,0,97.52,11.35Z"/><path class="cls-1" d="M43.33,21a.86.86,0,1,0,.19-1.71h-.19a.86.86,0,0,0-.76.95A.85.85,0,0,0,43.33,21Z"/><path class="cls-1" d="M90.39,12.44a.86.86,0,0,0,.76-.95.85.85,0,0,0-.76-.76.86.86,0,1,0-.19,1.71Z"/><path class="cls-1" d="M36.21,22.06a.86.86,0,0,0,.84-.84.85.85,0,0,0-.83-.87h0a.87.87,0,0,0-.85.83A.89.89,0,0,0,36.21,22.06Z"/><path class="cls-1" d="M29,23.08a.85.85,0,1,0-.83-.87v0A.85.85,0,0,0,29,23.08Z"/><path class="cls-1" d="M83.22,13.46a.87.87,0,0,0,.84-.85.84.84,0,1,0-.84.85Z"/><path class="cls-1" d="M21.8,24.14a.82.82,0,1,0-.8-.86.82.82,0,0,0,.8.86Z"/><path class="cls-1" d="M76.09,14.52a.82.82,0,1,0-.82-.82A.82.82,0,0,0,76.09,14.52Z"/><path class="cls-1" d="M68.93,15.62a.83.83,0,0,0,0-1.66.85.85,0,0,0-.85.83h0A.85.85,0,0,0,68.93,15.62Z"/><path class="cls-1" d="M14.65,25.24a.83.83,0,0,0,0-1.66.83.83,0,0,0,0,1.66Z"/><path class="cls-1" d="M61.76,16.68a.81.81,0,0,0,0-1.61.81.81,0,0,0-.81.77.79.79,0,0,0,.74.84Z"/><path class="cls-1" d="M116,7.06a.81.81,0,0,0,0-1.61.81.81,0,0,0-.18,1.61A.54.54,0,0,0,116,7.06Z"/><path class="cls-1" d="M7.51,26.3a.81.81,0,0,0,.18-1.61.54.54,0,0,0-.18,0,.81.81,0,0,0-.18,1.61Z"/><path class="cls-1" d="M101.68,9.22a.79.79,0,1,0-.79-.79.79.79,0,0,0,.79.79Z"/><path class="cls-1" d="M108.82,8.13A.79.79,0,0,0,109,6.56h-.18a.76.76,0,0,0-.79.73v0a.76.76,0,0,0,.75.79Z"/><path class="cls-1" d="M118.89,18.62V16.29a1.18,1.18,0,0,0-1,1.31A1.06,1.06,0,0,0,118.89,18.62Z"/><path class="cls-1" d="M54.56,17.75a.79.79,0,0,0,.18-1.57h-.18a.79.79,0,0,0-.18,1.57A.54.54,0,0,0,54.56,17.75Z"/><path class="cls-1" d="M94.51,10.24a.79.79,0,0,0,.76-.77.77.77,0,1,0-1.54,0h0A.78.78,0,0,0,94.51,10.24Z"/><path class="cls-1" d="M47.39,18.77a.78.78,0,0,0,.18-1.55h-.18a.78.78,0,0,0,0,1.55Z"/><path class="cls-1" d="M40.26,19.86a.78.78,0,1,0-.76-.8v0A.78.78,0,0,0,40.26,19.86Z"/><path class="cls-1" d="M87.35,11.3a.75.75,0,1,0-.75-.75A.76.76,0,0,0,87.35,11.3Z"/><path class="cls-1" d="M33.08,20.93a.74.74,0,0,0,.78-.7v0a.74.74,0,0,0-.69-.77h0a.76.76,0,0,0-.22,1.5Z"/><path class="cls-1" d="M80.16,12.4a.76.76,0,1,0,.07-1.52h0a.75.75,0,0,0-.79.72A.76.76,0,0,0,80.16,12.4Z"/><path class="cls-1" d="M25.93,22a.76.76,0,0,0,0-1.52h0a.76.76,0,0,0,0,1.52Z"/><path class="cls-1" d="M18.8,23.09a.75.75,0,0,0,0-1.49.75.75,0,0,0,0,1.49Z"/><path class="cls-1" d="M73,13.47a.73.73,0,0,0,.65-.82A.74.74,0,0,0,73,12a.74.74,0,0,0-.17,1.47Z"/><path class="cls-1" d="M11.57,24.11a.73.73,0,0,0,0-1.46h0a.73.73,0,1,0,0,1.46h0Z"/><path class="cls-1" d="M65.79,14.53A.72.72,0,1,0,66,13.1h-.17a.72.72,0,0,0-.17,1.43Z"/><path class="cls-1" d="M4.44,25.17a.7.7,0,0,0,.68-.7.67.67,0,0,0-.66-.7h0a.69.69,0,0,0-.74.64v.05a.7.7,0,0,0,.69.71Z"/><path class="cls-1" d="M58.63,15.55a.7.7,0,0,0,.73-.67v0a.71.71,0,0,0-1.41,0A.7.7,0,0,0,58.63,15.55Z"/><path class="cls-1" d="M1,27.05a.75.75,0,0,0,0-.94.75.75,0,0,0-1-.22v1.4C.52,27.42.79,27.36,1,27.05Z"/><path class="cls-1" d="M44.33,17.7a.68.68,0,1,0-.68-.68.67.67,0,0,0,.68.68Z"/><path class="cls-1" d="M105.73,7a.7.7,0,0,0,.69-.69.71.71,0,0,0-.7-.69.69.69,0,0,0-.68.7h0a.67.67,0,0,0,.68.68Z"/><path class="cls-1" d="M51.51,16.62a.66.66,0,0,0,.66-.68v0a.66.66,0,0,0-.66-.66h0a.69.69,0,0,0-.77.6.7.7,0,0,0,.6.77h.21Z"/><path class="cls-1" d="M98.55,8.08a.68.68,0,0,0,0-1.36h0a.7.7,0,0,0-.67.71A.72.72,0,0,0,98.55,8.08Z"/><path class="cls-1" d="M112.89,5.92a.7.7,0,1,0-.78-.78.71.71,0,0,0,.61.78Z"/><path class="cls-1" d="M37.14,18.77a.66.66,0,0,0,.07-1.32h0a.67.67,0,0,0-.7.62A.68.68,0,0,0,37.14,18.77Z"/><path class="cls-1" d="M91.4,9.14a.65.65,0,1,0-.65-.65.65.65,0,0,0,.65.65Z"/><path class="cls-1" d="M30,19.85a.69.69,0,0,0,.16-1.36.65.65,0,0,0-.75.53.57.57,0,0,0,0,.13A.66.66,0,0,0,30,19.85Z"/><path class="cls-1" d="M84.28,10.23a.66.66,0,0,0,.62-.68.68.68,0,0,0-.67-.63.66.66,0,0,0,0,1.31Z"/><path class="cls-1" d="M22.88,20.86a.64.64,0,0,0,.61-.63.63.63,0,0,0-.63-.63h0a.63.63,0,0,0,0,1.26h0Z"/><path class="cls-1" d="M77.08,11.24a.63.63,0,1,0-.63-.63A.63.63,0,0,0,77.08,11.24Z"/><path class="cls-1" d="M15.7,21.94a.61.61,0,0,0,.61-.61h0a.65.65,0,1,0-.75.61h.14Z"/><path class="cls-1" d="M69.93,12.32a.63.63,0,0,0,.16-1.25h-.16a.62.62,0,0,0-.59.64A.62.62,0,0,0,69.93,12.32Z"/><path class="cls-1" d="M8.54,23a.6.6,0,0,0,.61-.59v0a.58.58,0,0,0-.6-.58h0a.58.58,0,0,0-.57.57h0a.58.58,0,0,0,.55.61Z"/><path class="cls-1" d="M62.79,13.38a.58.58,0,0,0,.59-.59v0a.57.57,0,0,0-.59-.56.6.6,0,0,0-.15,1.19Z"/><path class="cls-1" d="M1.38,24.1a.61.61,0,0,0,0-1.21.61.61,0,0,0,0,1.21Z"/><path class="cls-1" d="M.09,41A1.25,1.25,0,0,0,.6,39.32a1.24,1.24,0,0,0-.6-.55v1.15A3.27,3.27,0,0,0,.09,41Z"/><path class="cls-1" d="M116.92,3.75a.59.59,0,1,0,.21-1.16H117a.59.59,0,1,0-.2,1.16h.12Z"/><path class="cls-1" d="M55.55,14.46a.6.6,0,0,0,.6-.6v0a.61.61,0,0,0-.61-.56.59.59,0,0,0-.56.6A.6.6,0,0,0,55.55,14.46Z"/><path class="cls-1" d="M109.79,4.84a.58.58,0,0,0,.58-.57.57.57,0,1,0-.55.57h0Z"/><path class="cls-1" d="M102.66,5.91a.57.57,0,0,0,0-1.14h0a.57.57,0,0,0,0,1.14Z"/><path class="cls-1" d="M48.39,15.53a.57.57,0,1,0-.57-.57A.58.58,0,0,0,48.39,15.53Z"/><path class="cls-1" d="M41.29,16.56a.57.57,0,1,0-.62-.53.58.58,0,0,0,.62.53Z"/><path class="cls-1" d="M88.27,8a.56.56,0,0,0,.61-.51v0a.55.55,0,0,0-.55-.54A.54.54,0,1,0,88.27,8Z"/><path class="cls-1" d="M95.46,7a.56.56,0,0,0,.15-1.11h-.15a.58.58,0,0,0-.58.52.57.57,0,0,0,.55.59Z"/><path class="cls-1" d="M34.08,17.62a.53.53,0,0,0,.55-.51v0a.52.52,0,0,0-.49-.55h0a.54.54,0,0,0,0,1.08h0Z"/><path class="cls-1" d="M81.17,9.09a.55.55,0,0,0,.47-.62A.54.54,0,0,0,81.17,8a.55.55,0,0,0-.47.62A.54.54,0,0,0,81.17,9.09Z"/><path class="cls-1" d="M26.92,18.72a.56.56,0,0,0,.54-.55.55.55,0,0,0-.54-.55.55.55,0,0,0,0,1.1Z"/><path class="cls-1" d="M118.2,7.31c0,.39.22.59.68.72V6.39C118.33,6.64,118.16,6.88,118.2,7.31Z"/><path class="cls-1" d="M12.6,20.86a.52.52,0,1,0-.29,0A.48.48,0,0,0,12.6,20.86Z"/><path class="cls-1" d="M66.87,11.24a.52.52,0,0,0,0-1,.5.5,0,0,0-.52.48v.07A.51.51,0,0,0,66.87,11.24Z"/><path class="cls-1" d="M74,10.16a.53.53,0,0,0,.15-1.05H74a.53.53,0,1,0-.15,1.05Z"/><path class="cls-1" d="M19.75,19.78a.53.53,0,1,0,.15-1.05.38.38,0,0,0-.15,0,.53.53,0,0,0-.45.6A.52.52,0,0,0,19.75,19.78Z"/><path class="cls-1" d="M59.7,12.32a.51.51,0,0,0,.48-.53.5.5,0,0,0-.51-.49h0a.5.5,0,0,0-.4.6.51.51,0,0,0,.4.4Z"/><path class="cls-1" d="M113.94,2.7a.53.53,0,0,0,.48-.54.54.54,0,0,0-.53-.48.51.51,0,0,0,0,1Z"/><path class="cls-1" d="M5.44,21.87a.52.52,0,0,0,.52-.5.51.51,0,0,0-.53-.49h0a.48.48,0,0,0-.48.47.49.49,0,0,0,.46.52Z"/><path class="cls-1" d="M52.5,13.34a.5.5,0,0,0,0-1,.51.51,0,0,0-.51.45.5.5,0,0,0,.45.55Z"/><path class="cls-1" d="M106.76,3.72a.5.5,0,0,0,0-1,.5.5,0,0,0,0,1Z"/><path class="cls-1" d="M45.32,14.41a.5.5,0,0,0,.54-.46.49.49,0,0,0-.45-.54h0a.5.5,0,0,0-.09,1Z"/><path class="cls-1" d="M92.38,5.88a.5.5,0,0,0,.47-.47.47.47,0,1,0-.44.5Z"/><path class="cls-1" d="M99.56,4.78a.47.47,0,1,0-.47-.47.47.47,0,0,0,.47.47Z"/><path class="cls-1" d="M38.2,15.5a.5.5,0,0,0,0-1h0a.49.49,0,0,0-.51.47h0a.5.5,0,0,0,.48.52Z"/><path class="cls-1" d="M31,16.56a.46.46,0,0,0,.42-.5.47.47,0,0,0-.37-.41.48.48,0,0,0-.51.43.47.47,0,0,0,.46.48Z"/><path class="cls-1" d="M23.83,17.66a.48.48,0,0,0,.47-.48.49.49,0,0,0-.49-.45.48.48,0,0,0-.4.53.47.47,0,0,0,.4.4Z"/><path class="cls-1" d="M78.05,8a.47.47,0,0,0,.47-.47h0A.46.46,0,0,0,78,7.11h0a.49.49,0,0,0-.44.44A.48.48,0,0,0,78.05,8Z"/><path class="cls-1" d="M85.24,6.94A.46.46,0,0,0,85.38,6a.33.33,0,0,0-.14,0,.44.44,0,0,0-.42.45.44.44,0,0,0,.42.46Z"/><path class="cls-1" d="M63.76,10.14a.45.45,0,1,0,0-.9.47.47,0,0,0-.49.44A.48.48,0,0,0,63.76,10.14Z"/><path class="cls-1" d="M49.44,12.32a.47.47,0,0,0,.43-.44.46.46,0,0,0-.4-.46.47.47,0,0,0-.49.43A.47.47,0,0,0,49.44,12.32Z"/><path class="cls-1" d="M9.51,19.76a.47.47,0,0,0,.46-.47.49.49,0,0,0-.5-.43.47.47,0,0,0-.4.47A.45.45,0,0,0,9.51,19.76Z"/><path class="cls-1" d="M56.56,11.22a.44.44,0,1,0-.44-.44A.44.44,0,0,0,56.56,11.22Z"/><path class="cls-1" d="M13.58,17.69a.44.44,0,0,0,.43-.44.43.43,0,1,0-.86,0A.45.45,0,0,0,13.58,17.69Z"/><path class="cls-1" d="M16.69,18.66a.44.44,0,0,0,.37-.5.42.42,0,0,0-.84.06v0A.46.46,0,0,0,16.69,18.66Z"/><path class="cls-1" d="M2.4,20.84a.44.44,0,0,0,.4-.47A.42.42,0,0,0,2.34,20a.42.42,0,1,0,.06.84Z"/><path class="cls-1" d="M28,15.51a.44.44,0,0,0,.41-.46.47.47,0,0,0-.46-.42.45.45,0,0,0-.4.47.43.43,0,0,0,.45.41Z"/><path class="cls-1" d="M71,9a.44.44,0,0,0,.41-.46.46.46,0,0,0-.47-.41.43.43,0,0,0-.43.41s0,.05,0,.08A.43.43,0,0,0,71,9Z"/><path class="cls-1" d="M42.25,13.38a.43.43,0,0,0,.46-.4.43.43,0,0,0-.42-.44h0a.4.4,0,0,0-.45.35v0a.42.42,0,0,0,.39.45Z"/><path class="cls-1" d="M6.43,18.76A.42.42,0,1,0,6,18.34H6a.41.41,0,0,0,.41.41Z"/><path class="cls-1" d="M35.13,14.41a.42.42,0,0,0,.41-.43h0a.4.4,0,0,0-.4-.4h0a.42.42,0,0,0-.42.42h0a.43.43,0,0,0,.45.41Z"/><path class="cls-1" d="M20.82,16.59a.43.43,0,0,0,.41-.45h0a.42.42,0,0,0-.44-.4h0a.43.43,0,0,0-.41.45h0A.43.43,0,0,0,20.82,16.59Z"/><path class="cls-1" d="M17.52,15.57A.58.58,0,0,0,18,15.5a.56.56,0,0,0,.11-.45c0-.05-.24-.1-.37-.11a1.83,1.83,0,0,0-.4.05C17.23,15.29,17.31,15.49,17.52,15.57Z"/><path class="cls-1" d="M32.09,13.45c.25,0,.33-.21.31-.67l-.82.09C31.7,13.35,31.84,13.49,32.09,13.45Z"/><path class="cls-1" d="M25,14.52c.3-.06.37-.25.24-.7l-.75.13C24.52,14.44,24.66,14.57,25,14.52Z"/><path class="cls-1" d="M10.64,16.65c.28-.07.36-.28.22-.69l-.74.12C10.21,16.55,10.37,16.71,10.64,16.65Z"/><path class="cls-1" d="M3.55,17.69c.28-.09.32-.33.19-.67a1.46,1.46,0,0,0-.52.06c-.16.06-.37.29-.16.48A.63.63,0,0,0,3.55,17.69Z"/><path class="cls-1" d="M53.59,10.23c.26-.06.33-.23.25-.67l-.79.16C53.21,10.17,53.35,10.29,53.59,10.23Z"/><path class="cls-1" d="M46.43,11.27c.26-.07.33-.25.25-.63l-.77.12C46,11.2,46.18,11.32,46.43,11.27Z"/><path class="cls-1" d="M67.84,8.06c.25,0,.37-.19.34-.6l-.77.09C67.38,7.92,67.56,8.05,67.84,8.06Z"/><path class="cls-1" d="M60.74,9.13c.29-.07.38-.26.3-.61l-.81.12C60.36,9.08,60.48,9.19,60.74,9.13Z"/><path class="cls-1" d="M39.32,12.32c.25-.08.33-.27.24-.6H39a.23.23,0,0,0-.21.23.21.21,0,0,0,.07.15A.38.38,0,0,0,39.32,12.32Z"/><path class="cls-1" d="M75.12,6.94a.39.39,0,0,0,.27-.48l0-.07H75l-.42.09C74.73,6.93,74.88,7,75.12,6.94Z"/><path class="cls-1" d="M89.48,4.84c.24-.08.29-.24.19-.57l-.6.08-.13.09C89.09,4.81,89.24,4.92,89.48,4.84Z"/><path class="cls-1" d="M82.26,5.88c.24,0,.39-.21.33-.55l-.84.1C81.83,5.8,82,5.93,82.26,5.88Z"/><path class="cls-1" d="M96.58,3.75c.27,0,.38-.22.32-.54l-.83.1C96.12,3.64,96.28,3.79,96.58,3.75Z"/><path class="cls-1" d="M103.75,2.67c.22,0,.35-.21.33-.53a1.15,1.15,0,0,0-.85.22C103.36,2.59,103.51,2.73,103.75,2.67Z"/><path class="cls-1" d="M110.94,1.58c.22-.06.34-.21.28-.51l-.84.13C110.5,1.56,110.7,1.64,110.94,1.58Z"/><path class="cls-1" d="M118.5,0l-1,.15C117.94.66,118.12.64,118.5,0Z"/><path class="cls-1" d="M0,29.06v1.19C.43,29.68.42,29.44,0,29.06Z"/><rect class="cls-1" x="118.84" y="24.43" width="0.04" height="0.42"/></g></g></svg>